<svg width="40" height="40" viewBox="0 0 40 40" fill="none" xmlns="http://www.w3.org/2000/svg">
<g clip-path="url(#clip0_165_22)">
<mask id="mask0_165_22" style="mask-type:luminance" maskUnits="userSpaceOnUse" x="0" y="0" width="40" height="40">
<path d="M40 0H0V40H40V0Z" fill="white"/>
</mask>
<g mask="url(#mask0_165_22)">
<path d="M33.3334 23.333C30.4164 23.3314 27.8375 25.2276 26.9692 28.0125C26.1009 30.7972 27.1452 33.8231 29.5461 35.4797C28.4777 35.8598 27.8389 36.9546 28.0334 38.0718C28.228 39.1889 29.1995 40.0032 30.3334 39.9997H36.3334C37.4674 40.0032 38.4388 39.1889 38.6334 38.0718C38.828 36.9546 38.1891 35.8598 37.1208 35.4797C39.5218 33.8231 40.5659 30.7972 39.6977 28.0125C38.8294 25.2276 36.2505 23.3314 33.3334 23.333ZM36.3334 36.6664C36.8857 36.6664 37.3334 37.114 37.3334 37.6664C37.3334 38.2186 36.8857 38.6664 36.3334 38.6664H30.3334C29.7812 38.6664 29.3334 38.2186 29.3334 37.6664C29.3334 37.114 29.7812 36.6664 30.3334 36.6664H36.3334ZM33.3334 35.333C30.388 35.333 28.0001 32.9452 28.0001 29.9997C28.0001 27.0542 30.388 24.6664 33.3334 24.6664C36.279 24.6664 38.6668 27.0542 38.6668 29.9997C38.6635 32.9438 36.2776 35.3297 33.3334 35.333Z" fill="black"/>
<path d="M33.3334 28H34.6668C35.035 28 35.3334 27.7015 35.3334 27.3333C35.3334 26.9652 35.035 26.6666 34.6668 26.6666H34.0002C34.0002 26.2984 33.7016 26 33.3334 26C32.9653 26 32.6668 26.2984 32.6668 26.6666V26.7893C31.7491 27.1126 31.1984 28.0505 31.3632 29.0095C31.528 29.9684 32.3605 30.6685 33.3334 30.6666C33.7016 30.6666 34.0002 30.9652 34.0002 31.3333C34.0002 31.7015 33.7016 32 33.3334 32H32.0002C31.632 32 31.3334 32.2984 31.3334 32.6666C31.3334 33.0348 31.632 33.3333 32.0002 33.3333H32.6668C32.6668 33.7015 32.9653 34 33.3334 34C33.7016 34 34.0002 33.7015 34.0002 33.3333V33.2106C34.9178 32.8874 35.4686 31.9495 35.3037 30.9905C35.1388 30.0316 34.3064 29.3315 33.3334 29.3333C32.9653 29.3333 32.6668 29.0348 32.6668 28.6666C32.6668 28.2984 32.9653 28 33.3334 28Z" fill="black"/>
<path d="M26.6668 23.3334C26.6698 20.1647 24.4421 17.4318 21.3379 16.7959C18.2338 16.1601 15.1109 17.7971 13.8678 20.7118C12.6248 23.6264 13.6052 27.0133 16.2128 28.8134C15.4558 29.0812 14.891 29.7215 14.7198 30.5061C14.5487 31.2906 14.7954 32.1079 15.3721 32.6668C14.9213 33.104 14.6669 33.7054 14.6669 34.3334C14.6669 34.9615 14.9213 35.5628 15.3721 36.0001C14.6921 36.6617 14.4812 37.6696 14.8388 38.5484C15.1965 39.4272 16.0513 40.0014 17.0002 40.0001H23.0002C23.9489 40.0014 24.8038 39.4272 25.1614 38.5484C25.5191 37.6696 25.3082 36.6617 24.6281 36.0001C25.0789 35.5628 25.3334 34.9615 25.3334 34.3334C25.3334 33.7054 25.0789 33.104 24.6281 32.6668C25.2048 32.1079 25.4516 31.2906 25.2804 30.5061C25.1092 29.7215 24.5445 29.0812 23.7875 28.8134C25.5891 27.5705 26.6654 25.5222 26.6668 23.3334ZM14.6668 23.3334C14.6668 20.3879 17.0546 18.0001 20.0002 18.0001C22.9456 18.0001 25.3334 20.3879 25.3334 23.3334C25.3334 26.279 22.9456 28.6668 20.0002 28.6668C17.056 28.6634 14.6701 26.2776 14.6668 23.3334ZM24.0002 37.6668C24.0002 38.219 23.5524 38.6668 23.0002 38.6668H17.0002C16.4478 38.6668 16.0002 38.219 16.0002 37.6668C16.0002 37.1144 16.4478 36.6668 17.0002 36.6668H23.0002C23.5524 36.6668 24.0002 37.1144 24.0002 37.6668ZM24.0002 34.3334C24.0002 34.8857 23.5524 35.3334 23.0002 35.3334H17.0002C16.4478 35.3334 16.0002 34.8857 16.0002 34.3334C16.0002 33.7812 16.4478 33.3334 17.0002 33.3334H23.0002C23.5524 33.3334 24.0002 33.7812 24.0002 34.3334ZM23.0002 30.0001C23.5524 30.0001 24.0002 30.4478 24.0002 31.0001C24.0002 31.5523 23.5524 32.0001 23.0002 32.0001H17.0002C16.4478 32.0001 16.0002 31.5523 16.0002 31.0001C16.0002 30.4478 16.4478 30.0001 17.0002 30.0001H23.0002Z" fill="black"/>
<path d="M20 25.333H18.6667C18.2985 25.333 18 25.6314 18 25.9996C18 26.3679 18.2985 26.6663 18.6667 26.6663H19.3334C19.3334 27.0345 19.6319 27.333 20 27.333C20.3682 27.333 20.6667 27.0345 20.6667 26.6663V26.5436C21.5844 26.2204 22.1352 25.2825 21.9703 24.3236C21.8054 23.3646 20.973 22.6645 20 22.6663C19.6319 22.6663 19.3334 22.3679 19.3334 21.9996C19.3334 21.6314 19.6319 21.333 20 21.333H21.3334C21.7016 21.333 22 21.0345 22 20.6663C22 20.2982 21.7016 19.9996 21.3334 19.9996H20.6667C20.6667 19.6314 20.3682 19.333 20 19.333C19.6319 19.333 19.3334 19.6314 19.3334 19.9996V20.1223C18.4157 20.4456 17.8649 21.3836 18.0298 22.3425C18.1946 23.3014 19.0271 24.0015 20 23.9996C20.3682 23.9996 20.6667 24.2982 20.6667 24.6663C20.6667 25.0345 20.3682 25.333 20 25.333Z" fill="black"/>
<path d="M6.66673 10C3.7497 9.99844 1.17082 11.8946 0.302513 14.6795C-0.565791 17.4642 0.478402 20.4901 2.8794 22.1466C2.12234 22.4145 1.55762 23.0548 1.38645 23.8393C1.21529 24.6239 1.46202 25.4412 2.03873 26C1.58792 26.4373 1.33349 27.0386 1.33349 27.6666C1.33349 28.2948 1.58792 28.896 2.03873 29.3334C1.58792 29.7706 1.33349 30.372 1.33349 31C1.33349 31.628 1.58792 32.2294 2.03873 32.6666C1.58792 33.104 1.33349 33.7052 1.33349 34.3334C1.33349 34.9614 1.58792 35.5627 2.03873 36C1.35869 36.6616 1.14777 37.6695 1.50544 38.5484C1.86311 39.4272 2.71794 40.0013 3.66673 40H9.66672C10.6155 40.0013 11.4704 39.4272 11.828 38.5484C12.1857 37.6695 11.9748 36.6616 11.2948 36C11.7455 35.5627 12 34.9614 12 34.3334C12 33.7052 11.7455 33.104 11.2948 32.6666C11.7455 32.2294 12 31.628 12 31C12 30.372 11.7455 29.7706 11.2948 29.3334C11.7455 28.896 12 28.2948 12 27.6666C12 27.0386 11.7455 26.4373 11.2948 26C11.8714 25.4412 12.1182 24.6239 11.947 23.8393C11.7759 23.0548 11.2111 22.4145 10.4541 22.1466C12.8551 20.4901 13.8992 17.4642 13.0309 14.6795C12.1627 11.8946 9.58375 9.99844 6.66673 10ZM10.6667 37.6666C10.6667 38.219 10.219 38.6666 9.66672 38.6666H3.66673C3.11445 38.6666 2.66673 38.219 2.66673 37.6666C2.66673 37.1144 3.11445 36.6666 3.66673 36.6666H9.66672C10.219 36.6666 10.6667 37.1144 10.6667 37.6666ZM10.6667 34.3334C10.6667 34.8856 10.219 35.3334 9.66672 35.3334H3.66673C3.11445 35.3334 2.66673 34.8856 2.66673 34.3334C2.66673 33.781 3.11445 33.3334 3.66673 33.3334H9.66672C10.219 33.3334 10.6667 33.781 10.6667 34.3334ZM10.6667 31C10.6667 31.5523 10.219 32 9.66672 32H3.66673C3.11445 32 2.66673 31.5523 2.66673 31C2.66673 30.4477 3.11445 30 3.66673 30H9.66672C10.219 30 10.6667 30.4477 10.6667 31ZM10.6667 27.6666C10.6667 28.219 10.219 28.6666 9.66672 28.6666H3.66673C3.11445 28.6666 2.66673 28.219 2.66673 27.6666C2.66673 27.1144 3.11445 26.6666 3.66673 26.6666H9.66672C10.219 26.6666 10.6667 27.1144 10.6667 27.6666ZM9.66672 23.3334C10.219 23.3334 10.6667 23.781 10.6667 24.3334C10.6667 24.8856 10.219 25.3334 9.66672 25.3334H3.66673C3.11445 25.3334 2.66673 24.8856 2.66673 24.3334C2.66673 23.781 3.11445 23.3334 3.66673 23.3334H9.66672ZM6.66673 22C3.72121 22 1.3334 19.6122 1.3334 16.6666C1.3334 13.7212 3.72121 11.3334 6.66673 11.3334C9.61227 11.3334 12.0001 13.7212 12.0001 16.6666C11.9968 19.6108 9.61086 21.9967 6.66673 22Z" fill="black"/>
<path d="M6.66675 14.6665H8.00008C8.36828 14.6665 8.66672 14.368 8.66672 13.9998C8.66672 13.6317 8.36828 13.3331 8.00008 13.3331H7.33341C7.33341 12.9649 7.03494 12.6665 6.66675 12.6665C6.29855 12.6665 6.00008 12.9649 6.00008 13.3331V13.4558C5.08238 13.7791 4.53162 14.7171 4.69649 15.676C4.86136 16.6349 5.69379 17.335 6.66675 17.3331C7.03494 17.3331 7.33341 17.6317 7.33341 17.9998C7.33341 18.368 7.03494 18.6665 6.66675 18.6665H5.33341C4.96522 18.6665 4.66675 18.9649 4.66675 19.3331C4.66675 19.7013 4.96522 19.9998 5.33341 19.9998H6.00008C6.00008 20.368 6.29855 20.6665 6.66675 20.6665C7.03494 20.6665 7.33341 20.368 7.33341 19.9998V19.8771C8.25109 19.5539 8.80187 18.616 8.63703 17.6571C8.47211 16.6981 7.6397 15.998 6.66675 15.9998C6.29855 15.9998 6.00008 15.7013 6.00008 15.3331C6.00008 14.9649 6.29855 14.6665 6.66675 14.6665Z" fill="black"/>
<path d="M39.3334 17.9999C38.9652 17.9999 38.6666 18.2983 38.6666 18.6665V19.0572L36.2887 16.6792C36.5337 16.2728 36.6644 15.8078 36.6666 15.3332C36.6684 13.992 35.6717 12.8592 34.3413 12.6899C33.0109 12.5205 31.7623 13.3677 31.428 14.6665H25.8866C25.7078 14.6664 25.5366 14.5943 25.4113 14.4665L22.2887 11.3439C22.5334 10.9381 22.664 10.4737 22.6666 9.99988C22.6666 8.52714 21.4727 7.3332 20 7.3332C19.5255 7.33552 19.0604 7.46613 18.654 7.7112L13.5334 2.58853C13.158 2.21003 12.6464 1.99797 12.1134 1.99986H9.23867C8.9393 0.82373 7.88031 0.000488281 6.66666 0.000488281C5.45303 0.000488281 4.39402 0.82373 4.09466 1.99986H0.666666C0.298477 1.99986 0 2.29834 0 2.66653C0 3.03472 0.298477 3.3332 0.666666 3.3332H4.09466C4.39402 4.50933 5.45303 5.33257 6.66666 5.33257C7.88031 5.33257 8.9393 4.50933 9.23867 3.3332H12.1134C12.2922 3.3334 12.4634 3.40546 12.5887 3.5332L17.7113 8.65589C17.4666 9.06167 17.336 9.52597 17.3334 9.99988C17.3334 11.4726 18.5273 12.6665 20 12.6665C20.4745 12.6642 20.9396 12.5336 21.346 12.2885L24.4666 15.4112C24.842 15.7897 25.3536 16.0018 25.8866 15.9999H31.428C31.7311 17.1736 32.7877 17.9953 34 17.9999C34.4745 17.9975 34.9396 17.8669 35.346 17.6218L37.724 19.9999H37.3334C36.9652 19.9999 36.6666 20.2983 36.6666 20.6665C36.6666 21.0347 36.9652 21.3332 37.3334 21.3332H39.3334C39.7016 21.3332 40 21.0347 40 20.6665V18.6665C40 18.2983 39.7016 17.9999 39.3334 17.9999ZM6.66666 3.99986C5.93029 3.99986 5.33334 3.40291 5.33334 2.66653C5.33334 1.93015 5.93029 1.3332 6.66666 1.3332C7.40305 1.3332 8 1.93015 8 2.66653C8 3.02015 7.85953 3.35929 7.60948 3.60934C7.35943 3.85939 7.02029 3.99986 6.66666 3.99986ZM18.6666 9.99988C18.6665 9.64675 18.8068 9.30808 19.0566 9.05855C19.5816 8.56589 20.4028 8.57894 20.9119 9.088C21.4209 9.59707 21.434 10.4182 20.9413 10.9432C20.5598 11.3235 19.9869 11.4369 19.4892 11.2305C18.9916 11.0242 18.667 10.5386 18.6666 9.99988ZM32.6666 15.3332C32.6662 14.7297 33.0713 14.2011 33.6541 14.0446C34.2369 13.888 34.8523 14.1424 35.1543 14.6649C35.4563 15.1874 35.3698 15.8475 34.9434 16.2746C34.5623 16.656 33.9888 16.7704 33.4905 16.5644C32.9922 16.3584 32.667 15.8725 32.6666 15.3332Z" fill="black"/>
</g>
</g>
<defs>
<clipPath id="clip0_165_22">
<rect width="40" height="40" fill="white"/>
</clipPath>
</defs>
</svg>
