<svg width="40" height="40" viewBox="0 0 40 40" fill="none" xmlns="http://www.w3.org/2000/svg">
<g clip-path="url(#clip0_142_182)">
<path d="M19.9827 25.3908C19.6591 25.3908 19.3967 25.653 19.3967 25.9767C19.3967 26.3003 19.6591 26.5627 19.9827 26.5627C20.3063 26.5627 20.5686 26.3003 20.5686 25.9767C20.5686 25.653 20.3063 25.3908 19.9827 25.3908ZM20.586 22.4489C20.9683 22.3427 21.32 22.1344 21.5968 21.8428C22.0169 21.4005 22.2307 20.8208 22.1991 20.2105C22.1395 19.0644 21.1935 18.1484 20.0452 18.1254C18.9316 18.1015 17.9731 18.9177 17.8191 20.0204C17.805 20.1214 17.7979 20.2245 17.7979 20.327C17.7979 20.6506 18.0602 20.9129 18.3839 20.9129C18.7075 20.9129 18.9698 20.6506 18.9698 20.327C18.9698 20.2787 18.9732 20.2301 18.9798 20.1825C19.0508 19.6741 19.4875 19.2968 20.0004 19.2968C20.0074 19.2968 20.0145 19.2969 20.0216 19.297C20.5586 19.3078 21.001 19.7358 21.0288 20.2713C21.0436 20.5574 20.9436 20.829 20.7471 21.0359C20.5504 21.243 20.2852 21.3571 20.0001 21.3571C19.6764 21.3571 19.4141 21.6194 19.4141 21.943V23.633C19.4141 23.9566 19.6764 24.2189 20.0001 24.2189C20.3238 24.2189 20.586 23.9566 20.586 23.633V22.4489H20.586ZM14.3748 1.17188H29.964C31.3641 1.17188 32.5031 2.31086 32.5031 3.71094V18.1563L31.5046 17.1577C31.2757 16.929 30.9047 16.929 30.6759 17.1577C30.4471 17.3866 30.4471 17.7576 30.6759 17.9864L32.6646 19.9751C32.7791 20.0895 32.929 20.1466 33.079 20.1466C33.0807 20.1466 33.0825 20.1464 33.0843 20.1464C33.2795 20.1464 33.4522 20.0545 33.5603 19.908L35.4821 17.9863C35.7111 17.7575 35.7111 17.3865 35.4822 17.1577C35.2534 16.929 34.8824 16.9288 34.6536 17.1577L33.6752 18.136V3.71094C33.6752 1.66477 32.0104 0 29.9642 0H14.3748C14.0511 0 13.7889 0.262266 13.7889 0.585938C13.7889 0.909609 14.0511 1.17188 14.3748 1.17188ZM12.6574 16.7387C13.5416 16.25 14.0068 15.2313 13.7886 14.2613C13.3135 12.1482 11.8805 10.3793 9.95413 9.45742C10.5744 8.74836 10.9515 7.82156 10.9515 6.80766V2.60523C10.9516 1.16867 9.78287 0 8.34626 0H5.49586C4.05925 0 2.89054 1.16867 2.89054 2.60523V5.18172V5.18523V6.80781C2.89054 7.82117 3.26735 8.74766 3.88706 9.45656C3.39212 9.69312 2.9257 9.98805 2.49318 10.3385C1.26463 11.3333 0.398271 12.7268 0.0534163 14.2622C-0.164794 15.232 0.299987 16.2506 1.18384 16.7395C2.9307 17.7053 4.91443 18.2158 6.92067 18.2158C8.92745 18.2156 10.9113 17.7048 12.6574 16.7387ZM4.06245 2.60523C4.06245 1.81484 4.70544 1.17188 5.49586 1.17188H8.34626C9.1366 1.17188 9.77967 1.81484 9.77967 2.60523V4.07937C8.7076 3.41531 7.41717 3.2593 6.21213 3.65633L4.06245 4.36445V2.60523ZM4.06245 5.59828L6.57878 4.7693C7.49014 4.46914 8.469 4.6043 9.26481 5.13977L9.77967 5.48633V6.80773C9.77967 8.38391 8.49728 9.66617 6.92106 9.66617C5.34484 9.66617 4.06245 8.38391 4.06245 6.80773V5.59828ZM1.19681 14.5191C1.48409 13.2398 2.20638 12.0786 3.23079 11.2491C3.73861 10.8375 4.30207 10.5183 4.90857 10.2975C5.50125 10.6406 6.1883 10.838 6.92098 10.838C7.65351 10.838 8.34033 10.6407 8.93292 10.2977C10.7967 10.9782 12.2078 12.5734 12.6452 14.5184C12.7498 14.9834 12.5217 15.4747 12.0902 15.7131C10.5171 16.5837 8.72948 17.0438 6.92067 17.0438C5.11233 17.0438 3.32469 16.5838 1.75097 15.7139C1.32002 15.4755 1.09212 14.9843 1.19681 14.5191ZM39.9466 36.0465C39.4713 33.9324 38.0385 32.1634 36.1122 31.242C36.7324 30.5329 37.1095 29.6061 37.1095 28.5923V24.3898C37.1095 22.9533 35.9408 21.7846 34.5042 21.7846H31.6538C30.2172 21.7846 29.0485 22.9533 29.0485 24.3898V26.9663V26.9698V28.5924C29.0485 29.6057 29.4252 30.5321 30.0449 31.241C29.5498 31.4776 29.0837 31.7725 28.6518 32.1229C27.4227 33.1181 26.5559 34.5117 26.2114 36.0466C25.9932 37.0167 26.4584 38.0355 27.3425 38.5238C28.015 38.8959 28.7265 39.203 29.457 39.437C29.7574 39.5331 30.0938 39.3693 30.1937 39.0577C30.2924 38.7495 30.1226 38.4196 29.8144 38.3209C29.1564 38.1102 28.5156 37.8335 27.9095 37.4983C27.4782 37.26 27.2502 36.7688 27.3549 36.3035C27.6419 35.0248 28.3644 33.8636 29.3898 33.0334C29.8967 32.622 30.4597 32.303 31.0663 32.0821C31.6591 32.4254 32.3463 32.6229 33.0791 32.6229C33.8116 32.6229 34.4985 32.4255 35.0911 32.0825C36.9546 32.7624 38.3658 34.3577 38.8033 36.3038C38.908 36.7688 38.6801 37.26 38.2493 37.4983C36.6748 38.3682 34.8868 38.8281 33.0786 38.8281C32.8458 38.8281 32.6109 38.8205 32.3805 38.8057C32.0584 38.784 31.7789 39.0298 31.758 39.3527C31.737 39.6756 31.982 39.9542 32.3049 39.9752C32.5603 39.9916 32.8207 40 33.0785 40C35.0845 40 37.0684 39.4895 38.8161 38.5237C39.6999 38.0348 40.1648 37.0162 39.9466 36.0465ZM35.9375 28.5923C35.9375 30.1684 34.6552 31.4508 33.079 31.4508C31.5028 31.4508 30.2204 30.1684 30.2204 28.5923V27.3828L32.7367 26.5538C33.6477 26.2539 34.6269 26.3888 35.4227 26.9245L35.9375 27.2709V28.5923ZM35.9375 25.8641C34.8656 25.2001 33.5751 25.0438 32.3701 25.4409L30.2204 26.149V24.3897C30.2204 23.5994 30.8634 22.9563 31.6538 22.9563H34.5042C35.2946 22.9563 35.9375 23.5993 35.9375 24.3897V25.8641ZM20 15.7031C19.6418 15.7031 19.282 15.732 18.9306 15.7889C18.6111 15.8406 18.3941 16.1415 18.4458 16.4609C18.4975 16.7804 18.7979 16.9982 19.1179 16.9457C19.4076 16.8988 19.7044 16.8751 20 16.8751C23.0156 16.8751 25.4689 19.3284 25.4689 22.3438C25.4689 25.3593 23.0156 27.8126 20 27.8126C16.9844 27.8126 14.5311 25.3593 14.5311 22.3438C14.5311 20.5864 15.3847 18.9244 16.8145 17.898C17.0773 17.7093 17.1375 17.3432 16.9488 17.0803C16.76 16.8173 16.3939 16.7573 16.131 16.946C14.3954 18.192 13.3592 20.2098 13.3592 22.3438C13.3592 26.0054 16.3382 28.9844 20 28.9844C23.6618 28.9844 26.6408 26.0054 26.6408 22.3438C26.6408 18.6821 23.6618 15.7031 20 15.7031ZM23.4376 38.8281H10.036C8.63588 38.8281 7.49686 37.6891 7.49686 36.2891V22.2623L8.48541 23.2509C8.59979 23.3652 8.74979 23.4224 8.89972 23.4224C9.04965 23.4224 9.19965 23.3652 9.31411 23.2508C9.54294 23.022 9.54294 22.6509 9.31403 22.4222L7.32568 20.434C7.11818 20.2229 6.72277 20.1921 6.4962 20.434L4.50786 22.4222C4.27894 22.651 4.27894 23.022 4.50778 23.2508C4.73662 23.4797 5.10764 23.4796 5.3364 23.2509L6.32495 22.2623V36.2891C6.32495 38.3352 7.98977 40 10.036 40H23.4376C23.7613 40 24.0236 39.7377 24.0236 39.4141C24.0236 39.0904 23.7613 38.8281 23.4376 38.8281Z" fill="black"/>
</g>
<defs>
<clipPath id="clip0_142_182">
<rect width="40" height="40" fill="white"/>
</clipPath>
</defs>
</svg>
