<svg width="40" height="40" viewBox="0 0 40 40" fill="none" xmlns="http://www.w3.org/2000/svg">
<path d="M16.9022 13.252C17.8791 13.252 18.834 12.9807 19.6462 12.4724C20.4584 11.9642 21.0914 11.2418 21.4652 10.3966C21.839 9.55139 21.9368 8.62137 21.7462 7.72413C21.5556 6.8269 21.0852 6.00275 20.3944 5.3559C19.7037 4.70905 18.8236 4.26856 17.8655 4.09013C16.9075 3.9117 15.9144 4.00335 15.012 4.35348C14.1095 4.70362 13.3382 5.2965 12.7955 6.05718C12.2529 6.81786 11.9633 7.71215 11.9634 8.62698C11.9649 9.85321 12.4858 11.0288 13.4117 11.8958C14.3376 12.7629 15.5929 13.2506 16.9022 13.252ZM16.9022 4.95744C17.6769 4.95736 18.4342 5.17245 19.0784 5.57547C19.7226 5.97849 20.2247 6.55134 20.5212 7.2216C20.8177 7.89186 20.8953 8.62941 20.7442 9.34099C20.5931 10.0526 20.2201 10.7062 19.6723 11.2192C19.1246 11.7323 18.4267 12.0816 17.6669 12.2232C16.9071 12.3648 16.1195 12.2922 15.4038 12.0145C14.6881 11.7369 14.0763 11.2668 13.6459 10.6635C13.2155 10.0603 12.9858 9.35108 12.9858 8.62557C12.9874 7.65336 13.4005 6.72142 14.1347 6.03408C14.8689 5.3467 15.8641 4.96005 16.9022 4.95885V4.95744ZM31.2898 24.5665H25.4601V19.7976C25.4601 16.6391 22.4824 14.0699 18.8223 14.0699H14.9803C11.3202 14.0699 8.3429 16.6391 8.3429 19.7976V24.5679H2.51125C2.37566 24.5679 2.24562 24.6183 2.14975 24.7081C2.05387 24.7979 2 24.9197 2 25.0466C1.99965 25.8918 2.08147 26.7352 2.24442 27.5666C2.26177 27.6547 2.30534 27.7367 2.37009 27.803C2.43486 27.8691 2.51822 27.917 2.61065 27.9411L5.30133 28.6388C5.48862 29.1701 5.71771 29.6875 5.9867 30.1873L4.61257 32.4621C4.56537 32.5402 4.54263 32.6294 4.547 32.7193C4.55137 32.8092 4.58264 32.896 4.63725 32.9698C5.66398 34.3627 6.95207 35.5692 8.43894 36.5312C8.51787 36.5825 8.6106 36.6117 8.70651 36.6158C8.80244 36.6199 8.89763 36.5986 8.98118 36.5543L11.4103 35.2674C11.9441 35.5197 12.4971 35.7346 13.0647 35.9106L13.8121 38.4306C13.8378 38.5172 13.8891 38.5953 13.96 38.6557C14.0309 38.7164 14.1186 38.7572 14.2131 38.7733C15.9906 39.0756 17.8117 39.0756 19.5892 38.7733C19.6837 38.7572 19.7714 38.7164 19.8424 38.6557C19.9133 38.595 19.9645 38.5169 19.9902 38.4303L20.7357 35.9103C21.304 35.7344 21.8577 35.5195 22.3923 35.2674L24.8214 36.5543C24.905 36.5986 25.0001 36.6199 25.096 36.616C25.1919 36.6119 25.2847 36.5827 25.3637 36.5315C26.8518 35.571 28.1402 34.364 29.1657 32.9703C29.2203 32.8963 29.2515 32.8094 29.2559 32.7198C29.2602 32.6299 29.2373 32.541 29.19 32.4626L27.8166 30.1878C28.0866 29.6878 28.3162 29.1696 28.5032 28.6373L31.1939 27.9396C31.2865 27.9155 31.3702 27.8676 31.4349 27.801C31.4997 27.7346 31.5432 27.6524 31.5604 27.5638C31.7211 26.7331 31.802 25.8907 31.8022 25.0466C31.8022 24.9837 31.7891 24.9213 31.7634 24.8632C31.7377 24.8051 31.6998 24.7522 31.6522 24.7077C31.6046 24.6633 31.5483 24.628 31.4863 24.604C31.424 24.58 31.3576 24.5677 31.2903 24.5679L31.2898 24.5665ZM24.4219 25.5254C24.2929 27.3108 23.4446 28.9839 22.0486 30.2057C20.6526 31.4275 18.8131 32.1073 16.9022 32.1073C14.9914 32.1073 13.1519 31.4275 11.7559 30.2057C10.3598 28.9839 9.51153 27.3108 9.38256 25.5254H24.4219ZM17.7958 21.7498L16.9019 22.6038L16.0069 21.7495L16.3779 17.4143C16.3955 17.4143 16.4127 17.416 16.4306 17.416H17.372C17.3895 17.416 17.4071 17.416 17.4247 17.4143L17.7958 21.7498ZM17.7767 16.2989C17.7519 16.3461 17.7091 16.3828 17.6568 16.4018L17.6493 16.4053C17.5621 16.4419 17.4675 16.4602 17.372 16.4588H16.4306C16.3544 16.4674 16.277 16.4572 16.2063 16.429C16.1357 16.4009 16.0741 16.3559 16.0278 16.2985L15.6167 15.0271H18.1889L17.7767 16.2989ZM14.5531 15.0421L15.0498 16.5761C15.1114 16.7636 15.2265 16.9318 15.3828 17.0625L14.9694 21.8905C14.9636 21.9588 14.9735 22.0275 14.9984 22.0919C15.0234 22.1564 15.0628 22.215 15.1141 22.2639L16.5375 23.6226C16.5851 23.6679 16.6419 23.704 16.7045 23.7285C16.7671 23.7531 16.8343 23.7657 16.9022 23.7657C16.9701 23.7657 17.0374 23.753 17.1 23.7283C17.1626 23.7037 17.2194 23.6676 17.267 23.6222L18.6871 22.2639C18.7383 22.215 18.7777 22.1564 18.8027 22.0919C18.8276 22.0275 18.8375 21.9588 18.8317 21.8905L18.4198 17.064C18.5774 16.9333 18.6938 16.7647 18.7562 16.5764L19.2532 15.0421C22.1505 15.2283 24.4414 17.2893 24.4414 19.7976V24.5679H22.3976V20.1287C22.394 20.004 22.3385 19.8856 22.2431 19.7986C22.1476 19.7116 22.0197 19.6629 21.8865 19.6629C21.7533 19.6629 21.6254 19.7116 21.5299 19.7986C21.4345 19.8856 21.3791 20.004 21.3755 20.1287V24.5679H12.4271V20.1287C12.4235 20.004 12.3681 19.8856 12.2727 19.7986C12.1772 19.7116 12.0493 19.6629 11.9161 19.6629C11.7829 19.6629 11.655 19.7116 11.5595 19.7986C11.4641 19.8856 11.4086 20.004 11.405 20.1287V24.5679H9.36498V19.7976C9.36498 17.289 11.6558 15.2283 14.5531 15.0421ZM30.6068 27.0982L27.9631 27.7846C27.8803 27.8061 27.8043 27.8468 27.7428 27.9032C27.6811 27.9595 27.6357 28.0295 27.6108 28.1066C27.4017 28.7518 27.1252 29.376 26.7849 29.97C26.7439 30.0412 26.7231 30.1212 26.7239 30.2019C26.725 30.2828 26.7477 30.3622 26.7901 30.4324L28.141 32.6698C27.2793 33.7854 26.2333 34.7649 25.0423 35.5715L22.6539 34.3069C22.5791 34.2672 22.4947 34.2456 22.4086 34.2446C22.3226 34.2436 22.2377 34.2631 22.1618 34.3007C21.5255 34.6189 20.8578 34.8783 20.1681 35.0753C20.0857 35.0986 20.011 35.1414 19.9509 35.199C19.8908 35.2567 19.8472 35.3276 19.8242 35.4052L19.0933 37.8796C17.6415 38.094 16.1629 38.094 14.7112 37.8796L13.9765 35.405C13.9535 35.3274 13.91 35.2567 13.8501 35.199C13.7901 35.1414 13.7156 35.0989 13.6334 35.0753C12.9442 34.8781 12.277 34.6186 11.6412 34.3007C11.5653 34.2631 11.4803 34.2436 11.3943 34.2446C11.3083 34.2456 11.2239 34.2672 11.149 34.3069L8.76032 35.5715C7.57004 34.7638 6.52413 33.7843 5.66157 32.6696L7.0125 30.4324C7.05502 30.3622 7.07782 30.2828 7.0788 30.2021C7.07979 30.1212 7.05891 30.0415 7.01813 29.97C6.67923 29.3753 6.40313 28.7505 6.19373 28.1055C6.16869 28.0284 6.12327 27.9583 6.06166 27.9022C6.00006 27.8458 5.92427 27.8051 5.84132 27.7836L3.19697 27.0982C3.10881 26.5775 3.05453 26.0523 3.03441 25.5254H8.35859C8.4836 27.5684 9.4382 29.489 11.0267 30.894C12.6153 32.2989 14.7175 33.0815 16.9024 33.0815C19.0873 33.0815 21.1895 32.2989 22.7781 30.894C24.3666 29.489 25.3212 27.5684 25.4463 25.5254H30.7697C30.7489 26.0523 30.6945 26.5775 30.6068 27.0982ZM37.9825 17.6061L36.4949 12.4064C37.0784 11.595 37.4154 10.6502 37.4698 9.67308C37.5239 8.69603 37.2933 7.72357 36.8027 6.85984C36.3118 5.99614 35.5796 5.2737 34.684 4.76991C33.7884 4.26614 32.7635 4 31.7186 4C30.674 4 29.6489 4.26614 28.7535 4.76991C27.8579 5.2737 27.1254 5.99614 26.6348 6.85984C26.144 7.72357 25.9134 8.69603 25.9677 9.67308C26.0219 10.6502 26.3589 11.595 26.9426 12.4064L25.4545 17.6061C25.4295 17.6931 25.4313 17.785 25.4597 17.8711C25.488 17.9572 25.5418 18.0341 25.6147 18.0928C25.6876 18.1516 25.7768 18.1899 25.872 18.2033C25.9671 18.2166 26.0644 18.2046 26.1525 18.1685L28.0071 17.4108L29.2094 18.9363C29.2665 19.0089 29.3444 19.0649 29.4338 19.0978C29.5234 19.1308 29.621 19.1394 29.7156 19.1227C29.8101 19.106 29.8976 19.0646 29.9681 19.0033C30.0386 18.9421 30.0892 18.8634 30.1143 18.7764L31.2614 14.7702C31.4109 14.7814 31.5645 14.7887 31.7186 14.7887C31.8725 14.7887 32.0258 14.7814 32.177 14.7698L33.3229 18.776C33.3478 18.8631 33.3984 18.9418 33.4689 19.0031C33.5394 19.0644 33.6268 19.1058 33.7214 19.1226C33.816 19.1393 33.9135 19.1307 34.0032 19.0978C34.0926 19.0648 34.1705 19.0089 34.2276 18.9363L35.4298 17.4108L37.2845 18.1685C37.3725 18.2046 37.4698 18.2166 37.5649 18.2033C37.6603 18.1899 37.7494 18.1516 37.8224 18.0928C37.8953 18.0341 37.9489 17.9572 37.9773 17.8711C38.0058 17.785 38.0074 17.6931 37.9825 17.6061ZM29.4018 17.5686L28.5876 16.5351C28.5187 16.4478 28.4204 16.3849 28.3086 16.3568C28.1968 16.3287 28.0779 16.3371 27.9719 16.3804L26.7166 16.8938L27.7464 13.294C28.4488 13.9237 29.3102 14.3765 30.2501 14.6099L29.4018 17.5686ZM30.9908 13.779C30.9771 13.7762 30.9632 13.7738 30.9495 13.772C29.7751 13.5915 28.7163 13.0038 27.9836 12.1257C27.2509 11.2476 26.8978 10.1434 26.9945 9.03264C27.0913 7.92188 27.6308 6.88587 28.5056 6.13054C29.3805 5.37521 30.527 4.95585 31.717 4.95585C32.907 4.95585 34.0535 5.37521 34.9283 6.13054C35.8035 6.88587 36.343 7.92188 36.4394 9.03264C36.5362 10.1434 36.1831 11.2476 35.4503 12.1257C34.7176 13.0038 33.6588 13.5915 32.4847 13.772L32.4568 13.7769C31.9714 13.8487 31.4767 13.8496 30.9908 13.779ZM35.4648 16.3804C35.3588 16.3371 35.2402 16.3288 35.1281 16.3569C35.0163 16.385 34.9182 16.4478 34.8493 16.5351L34.0354 17.5683L33.1893 14.6095C34.1284 14.3761 34.989 13.9239 35.6911 13.295L36.7207 16.8938L35.4648 16.3804ZM35.3101 9.39414C35.3099 8.72908 35.0991 8.07903 34.7045 7.52613C34.3098 6.97327 33.749 6.54237 33.0928 6.28799C32.4366 6.03359 31.7148 5.96709 31.0184 6.09693C30.3217 6.22675 29.6819 6.54706 29.1799 7.01735C28.6778 7.48763 28.3359 8.08679 28.1973 8.73907C28.0588 9.39135 28.1298 10.0674 28.4015 10.6819C28.6732 11.2963 29.1334 11.8215 29.7238 12.1911C30.3141 12.5607 31.0083 12.758 31.7186 12.7581C32.6708 12.7573 33.5839 12.4026 34.2574 11.7719C34.9308 11.1412 35.3093 10.286 35.3101 9.39414ZM29.1509 9.39414C29.1509 8.91829 29.3018 8.45321 29.5841 8.05764C29.8667 7.6621 30.2679 7.35385 30.7374 7.17191C31.2067 6.98994 31.7233 6.94248 32.2218 7.03546C32.72 7.12846 33.1775 7.35774 33.5367 7.69432C33.8958 8.0309 34.1404 8.45966 34.2393 8.92639C34.3383 9.39311 34.2872 9.87682 34.0926 10.3164C33.898 10.7559 33.5684 11.1315 33.1458 11.3957C32.7233 11.6599 32.2267 11.8008 31.7186 11.8006C31.0375 11.7998 30.3846 11.546 29.903 11.0948C29.4217 10.6437 29.1512 10.032 29.1509 9.39414ZM33.2817 8.92272L31.5522 10.5424C31.5049 10.5869 31.4486 10.6222 31.3865 10.6463C31.3245 10.6704 31.2581 10.6828 31.1909 10.6828C31.1236 10.6828 31.0572 10.6704 30.9952 10.6463C30.9331 10.6222 30.8768 10.5869 30.8296 10.5424L30.1567 9.91245C30.0651 9.82193 30.0146 9.70141 30.0162 9.57659C30.0181 9.45175 30.0717 9.33248 30.166 9.24422C30.2603 9.15595 30.3876 9.10564 30.521 9.10403C30.6541 9.10241 30.7828 9.14962 30.8796 9.23558L31.1906 9.52677L32.5585 8.2455C32.6552 8.15953 32.784 8.11233 32.9173 8.11394C33.0504 8.11555 33.1778 8.16586 33.2721 8.25413C33.3664 8.3424 33.4202 8.46166 33.4219 8.58648C33.4235 8.71133 33.3732 8.83184 33.2814 8.92237L33.2817 8.92272Z" fill="black"/>
</svg>
