<svg width="40" height="40" viewBox="0 0 40 40" fill="none" xmlns="http://www.w3.org/2000/svg">
<g clip-path="url(#clip0_26_26)">
<path d="M8.33333 13.3332C10.1743 13.3332 11.6667 11.8408 11.6667 9.99984C11.6667 8.15889 10.1743 6.6665 8.33333 6.6665C6.49238 6.6665 5 8.15889 5 9.99984C5 11.8408 6.49238 13.3332 8.33333 13.3332Z" stroke="#333333" stroke-width="2" stroke-linecap="round" stroke-linejoin="round"/>
<path d="M20 13.3332C21.8409 13.3332 23.3333 11.8408 23.3333 9.99984C23.3333 8.15889 21.8409 6.6665 20 6.6665C18.159 6.6665 16.6666 8.15889 16.6666 9.99984C16.6666 11.8408 18.159 13.3332 20 13.3332Z" stroke="#333333" stroke-width="2" stroke-linecap="round" stroke-linejoin="round"/>
<path d="M31.6667 13.3332C33.5077 13.3332 35 11.8408 35 9.99984C35 8.15889 33.5077 6.6665 31.6667 6.6665C29.8258 6.6665 28.3334 8.15889 28.3334 9.99984C28.3334 11.8408 29.8258 13.3332 31.6667 13.3332Z" stroke="#333333" stroke-width="2" stroke-linecap="round" stroke-linejoin="round"/>
<path d="M8.33333 33.3332C10.1743 33.3332 11.6667 31.8408 11.6667 29.9998C11.6667 28.1589 10.1743 26.6665 8.33333 26.6665C6.49238 26.6665 5 28.1589 5 29.9998C5 31.8408 6.49238 33.3332 8.33333 33.3332Z" stroke="#333333" stroke-width="2" stroke-linecap="round" stroke-linejoin="round"/>
<path d="M20 33.3332C21.8409 33.3332 23.3333 31.8408 23.3333 29.9998C23.3333 28.1589 21.8409 26.6665 20 26.6665C18.159 26.6665 16.6666 28.1589 16.6666 29.9998C16.6666 31.8408 18.159 33.3332 20 33.3332Z" stroke="#333333" stroke-width="2" stroke-linecap="round" stroke-linejoin="round"/>
<path d="M8.33331 13.3335V26.6668" stroke="#333333" stroke-width="2" stroke-linecap="round" stroke-linejoin="round"/>
<path d="M20 13.3335V26.6668" stroke="#333333" stroke-width="2" stroke-linecap="round" stroke-linejoin="round"/>
<path d="M31.6666 13.3335V16.6668C31.6666 17.5509 31.3155 18.3987 30.6903 19.0239C30.0652 19.649 29.2174 20.0002 28.3333 20.0002H8.33331" stroke="#333333" stroke-width="2" stroke-linecap="round" stroke-linejoin="round"/>
</g>
<defs>
<clipPath id="clip0_26_26">
<rect width="40" height="40" fill="white"/>
</clipPath>
</defs>
</svg>
