<?xml version="1.0" encoding="UTF-8"?> <svg xmlns="http://www.w3.org/2000/svg" width="152" height="152" viewBox="0 0 152 152" fill="none"> <g clip-path="url(#clip0_520_10)"> <mask id="path-1-outside-1_520_10" maskUnits="userSpaceOnUse" x="13.0293" y="1" width="140" height="150" fill="black"> <rect fill="white" x="13.0293" y="1" width="140" height="150"></rect> <path d="M68.6395 59.6904L83.796 44.7128L84.3857 42.108C84.4447 41.812 84.6216 41.5456 84.8575 41.3976L92.5536 35.3592C93.0254 34.9744 93.7331 35.0336 94.146 35.448L98.9524 40.2728C99.3947 40.7168 99.4242 41.4568 99.0113 41.9304L92.996 49.6264C92.7895 49.8632 92.5536 50.0112 92.2588 50.0704L89.6934 50.6624L74.5665 65.64L79.4024 70.4944C88.3665 79.4928 89.9588 73.5728 95.5908 79.256C98.8934 82.5712 99.8075 87.5736 97.9793 91.836C97.6549 92.6352 96.6229 92.8128 96.0037 92.2208L88.8678 85.0576C87.7472 83.9328 84.1498 87.544 85.2703 88.6688L92.4062 95.8616C92.996 96.4536 92.8485 97.5192 91.9934 97.8448C87.6293 99.5912 82.8819 98.7624 79.5203 95.4176C74.0062 89.8824 79.4613 88.1952 71.4408 79.8184C70.6742 79.0192 69.937 78.2496 69.1703 77.4504L48.9126 97.756C47.1139 99.5616 44.1947 99.5616 42.396 97.756L36.8524 92.1912C35.0537 90.3856 35.0537 87.4552 36.8524 85.6496L57.0806 65.344C55.7537 64.012 54.4857 62.7688 53.4831 61.7328C46.4652 54.688 45.3447 61.0816 39.2113 54.9248C35.9088 51.6096 34.9947 46.6072 36.8229 42.3448C37.1472 41.5456 38.1793 41.368 38.7985 41.96L45.9344 49.1232C47.0549 50.248 50.6524 46.6368 49.5319 45.512L42.3665 38.3488C41.7767 37.7568 41.9537 36.6912 42.8088 36.3656C47.1729 34.6192 51.9203 35.448 55.2819 38.7928C60.9434 44.4464 55.046 46.0744 64.0101 55.0728L68.6395 59.6904ZM72.8267 63.8936L88.1896 48.6792C88.7793 48.0872 90.9908 47.9688 91.3152 47.7616L96.446 41.1904L93.1434 37.8752L86.5972 43.0256C86.3908 43.3216 86.2434 45.6008 85.6831 46.1336L70.3203 61.3776L72.8267 63.8936ZM69.996 74.7568L73.2101 78.072C81.7024 86.952 76.6601 89.024 81.2601 93.6416C83.4126 95.8024 86.4203 96.6904 89.3395 96.0984L83.619 90.3264C80.1985 86.8928 87.2165 79.8776 90.637 83.2816L96.3575 89.0536C96.9472 86.1528 96.0626 83.104 93.9101 80.9432C89.1921 76.2368 87.128 81.6536 77.6921 72.1816L62.2998 56.76C52.8934 47.3176 58.2895 45.216 53.5716 40.5096C51.419 38.3488 48.4113 37.4608 45.4921 38.0528L51.2421 43.8248C54.6626 47.2584 47.6447 54.2736 44.2242 50.8696L38.5037 45.1272C37.9139 48.028 38.7985 51.0768 40.9511 53.2376C46.1113 58.4176 47.5267 52.32 55.2229 60.0456L69.996 74.7568ZM58.8203 67.0016L38.5921 87.3072C37.737 88.1656 37.737 89.5568 38.5921 90.4152L44.1357 95.98C44.9908 96.8384 46.3767 96.8384 47.2319 95.98L67.4895 75.6448L58.8203 67.0016ZM67.8434 6.1144C71.4703 6.1144 73.3575 10.584 70.7331 13.1592C68.1088 15.764 63.7152 13.84 63.7152 10.2288C63.7447 7.9792 65.5729 6.1144 67.8434 6.1144ZM69.0524 9.0152C67.4895 7.4464 65.0716 9.844 66.6639 11.4424C68.2267 13.0112 70.6152 10.6136 69.0524 9.0152ZM87.9831 131.411C89.5754 131.411 89.5754 133.838 87.9831 133.838H82.4101C80.8177 133.838 80.8177 131.411 82.4101 131.411H87.9831ZM87.9831 125.195C89.5754 125.195 89.5754 127.622 87.9831 127.622H53.4537C51.8613 127.622 51.8613 125.195 53.4537 125.195H87.9831ZM77.2793 131.411C78.8716 131.411 78.8716 133.838 77.2793 133.838H53.4537C51.8613 133.838 51.8613 131.411 53.4537 131.411H77.2793ZM53.4537 117.47C51.8613 117.47 51.8613 115.042 53.4537 115.042H59.0267C60.619 115.042 60.619 117.47 59.0267 117.47H53.4537ZM53.4537 111.283C51.8613 111.283 51.8613 108.856 53.4537 108.856H88.0126C89.6049 108.856 89.6049 111.283 88.0126 111.283H53.4537ZM64.1575 117.47C62.5652 117.47 62.5652 115.042 64.1575 115.042H87.9831C89.5754 115.042 89.5754 117.47 87.9831 117.47H64.1575ZM96.9178 127.474L112.281 111.431L102.963 106.074L96.9178 127.474ZM105.204 122.324L95.3549 132.625C94.4703 133.602 92.937 132.714 93.2908 131.5L100.81 104.86C100.132 104.475 99.5421 103.883 100.043 103.025L112.723 80.8248V28.3144C112.723 25.5616 110.482 23.312 107.74 23.312H91.787C91.1383 25.1768 89.369 26.4792 87.3344 26.4792H48.4113C46.3767 26.4792 44.6075 25.1768 43.9588 23.312H28.0062C25.2639 23.312 23.0229 25.5616 23.0229 28.3144V135.97C23.0229 138.722 25.2639 140.972 28.0062 140.972H107.71C110.452 140.972 112.693 138.722 112.693 135.97V114.48L105.204 122.324ZM147.37 49.952C148.697 47.6136 150.083 45.9264 149.346 43.292C148.078 38.6152 141.856 37.9344 139.527 42.0192L138.052 44.5944L147.37 49.952ZM150.909 48.5904L149.434 51.1656L149.818 51.4024C150.407 51.728 150.584 52.468 150.26 53.06L121.628 103.173V148.786C121.628 149.467 121.097 150 120.419 150H15.2383C14.5601 150 14.0293 149.467 14.0293 148.786V15.5272C14.0293 14.8464 14.5601 14.3136 15.2383 14.3136H43.7229C43.8703 13.3664 44.3716 12.36 45.0498 11.7088C45.9049 10.8504 47.0844 10.3176 48.3819 10.3176H58.4665C57.6408 8.1568 56.6678 6.3512 58.2601 4.0424C59.1447 2.74 60.5601 2 62.1229 2H73.5639C76.8665 2 79.137 5.3152 77.9575 8.4232L77.2203 10.3472H87.3049C89.6344 10.3472 91.6101 12.064 91.9639 14.3432H120.449C121.127 14.3432 121.657 14.876 121.657 15.5568V65.1072L133.924 43.6472C134.249 43.0552 134.986 42.8776 135.575 43.2032L135.959 43.44C137.581 40.5984 138.613 38.2008 142.151 37.224C148.845 35.3592 154.329 42.5816 150.909 48.5904ZM119.24 107.406L116.379 112.438C116.114 112.882 115.613 113.118 115.111 113.03V135.999C115.111 140.084 111.779 143.429 107.71 143.429H28.0062C23.937 143.429 20.6049 140.084 20.6049 135.999V28.3144C20.6049 24.2296 23.937 20.8848 28.0062 20.8848H43.6934V16.7408H16.4472V147.573H119.24V107.406ZM115.111 76.5624L119.24 69.3104V16.7408H92.0229V20.9144H107.71C111.779 20.9144 115.111 24.2592 115.111 28.344V76.5624ZM147.606 52.8824L135.428 45.8672L121.54 70.1688C119.564 73.8096 116.969 77.9832 114.993 81.6536C114.964 81.6832 114.964 81.7128 114.934 81.7424L102.727 103.143L114.905 110.158L147.606 52.8824ZM30.3652 122.768H46.0819C46.7601 122.768 47.2908 123.301 47.2908 123.982V134.993C47.2908 135.674 46.7601 136.206 46.0819 136.206H30.3652C29.687 136.206 29.1562 135.674 29.1562 134.993V123.982C29.1562 123.33 29.687 122.768 30.3652 122.768ZM44.8434 125.225H31.5742V133.809H44.8729V125.225H44.8434ZM30.3652 106.429H46.0819C46.7601 106.429 47.2908 106.962 47.2908 107.642V118.654C47.2908 119.334 46.7601 119.867 46.0819 119.867H30.3652C29.687 119.867 29.1562 119.334 29.1562 118.654V107.642C29.1562 106.991 29.687 106.429 30.3652 106.429ZM44.8434 108.856H31.5742V117.44H44.8729V108.856H44.8434ZM60.2357 12.7448H48.4113C47.7626 12.7448 47.2024 13.0112 46.7896 13.4256C46.1408 14.0768 46.1113 14.6984 46.1113 15.5272V21.7728C46.1113 23.0456 47.1434 24.0816 48.4113 24.0816H87.3344C88.6024 24.0816 89.6344 23.0456 89.6344 21.7728V15.0536C89.6344 13.7808 88.6024 12.7448 87.3344 12.7448H75.5101C74.6844 12.7448 74.0947 11.8864 74.3895 11.0872L75.746 7.5352C76.3357 6.0256 75.2447 4.3976 73.5934 4.3976H62.1819C60.5306 4.3976 59.469 5.996 60.0293 7.5352C60.2652 8.1568 61.4742 11.0576 61.4742 11.5312C61.4447 12.212 60.8844 12.7448 60.2357 12.7448Z"></path> </mask> <path d="M68.6395 59.6904L83.796 44.7128L84.3857 42.108C84.4447 41.812 84.6216 41.5456 84.8575 41.3976L92.5536 35.3592C93.0254 34.9744 93.7331 35.0336 94.146 35.448L98.9524 40.2728C99.3947 40.7168 99.4242 41.4568 99.0113 41.9304L92.996 49.6264C92.7895 49.8632 92.5536 50.0112 92.2588 50.0704L89.6934 50.6624L74.5665 65.64L79.4024 70.4944C88.3665 79.4928 89.9588 73.5728 95.5908 79.256C98.8934 82.5712 99.8075 87.5736 97.9793 91.836C97.6549 92.6352 96.6229 92.8128 96.0037 92.2208L88.8678 85.0576C87.7472 83.9328 84.1498 87.544 85.2703 88.6688L92.4062 95.8616C92.996 96.4536 92.8485 97.5192 91.9934 97.8448C87.6293 99.5912 82.8819 98.7624 79.5203 95.4176C74.0062 89.8824 79.4613 88.1952 71.4408 79.8184C70.6742 79.0192 69.937 78.2496 69.1703 77.4504L48.9126 97.756C47.1139 99.5616 44.1947 99.5616 42.396 97.756L36.8524 92.1912C35.0537 90.3856 35.0537 87.4552 36.8524 85.6496L57.0806 65.344C55.7537 64.012 54.4857 62.7688 53.4831 61.7328C46.4652 54.688 45.3447 61.0816 39.2113 54.9248C35.9088 51.6096 34.9947 46.6072 36.8229 42.3448C37.1472 41.5456 38.1793 41.368 38.7985 41.96L45.9344 49.1232C47.0549 50.248 50.6524 46.6368 49.5319 45.512L42.3665 38.3488C41.7767 37.7568 41.9537 36.6912 42.8088 36.3656C47.1729 34.6192 51.9203 35.448 55.2819 38.7928C60.9434 44.4464 55.046 46.0744 64.0101 55.0728L68.6395 59.6904ZM72.8267 63.8936L88.1896 48.6792C88.7793 48.0872 90.9908 47.9688 91.3152 47.7616L96.446 41.1904L93.1434 37.8752L86.5972 43.0256C86.3908 43.3216 86.2434 45.6008 85.6831 46.1336L70.3203 61.3776L72.8267 63.8936ZM69.996 74.7568L73.2101 78.072C81.7024 86.952 76.6601 89.024 81.2601 93.6416C83.4126 95.8024 86.4203 96.6904 89.3395 96.0984L83.619 90.3264C80.1985 86.8928 87.2165 79.8776 90.637 83.2816L96.3575 89.0536C96.9472 86.1528 96.0626 83.104 93.9101 80.9432C89.1921 76.2368 87.128 81.6536 77.6921 72.1816L62.2998 56.76C52.8934 47.3176 58.2895 45.216 53.5716 40.5096C51.419 38.3488 48.4113 37.4608 45.4921 38.0528L51.2421 43.8248C54.6626 47.2584 47.6447 54.2736 44.2242 50.8696L38.5037 45.1272C37.9139 48.028 38.7985 51.0768 40.9511 53.2376C46.1113 58.4176 47.5267 52.32 55.2229 60.0456L69.996 74.7568ZM58.8203 67.0016L38.5921 87.3072C37.737 88.1656 37.737 89.5568 38.5921 90.4152L44.1357 95.98C44.9908 96.8384 46.3767 96.8384 47.2319 95.98L67.4895 75.6448L58.8203 67.0016ZM67.8434 6.1144C71.4703 6.1144 73.3575 10.584 70.7331 13.1592C68.1088 15.764 63.7152 13.84 63.7152 10.2288C63.7447 7.9792 65.5729 6.1144 67.8434 6.1144ZM69.0524 9.0152C67.4895 7.4464 65.0716 9.844 66.6639 11.4424C68.2267 13.0112 70.6152 10.6136 69.0524 9.0152ZM87.9831 131.411C89.5754 131.411 89.5754 133.838 87.9831 133.838H82.4101C80.8177 133.838 80.8177 131.411 82.4101 131.411H87.9831ZM87.9831 125.195C89.5754 125.195 89.5754 127.622 87.9831 127.622H53.4537C51.8613 127.622 51.8613 125.195 53.4537 125.195H87.9831ZM77.2793 131.411C78.8716 131.411 78.8716 133.838 77.2793 133.838H53.4537C51.8613 133.838 51.8613 131.411 53.4537 131.411H77.2793ZM53.4537 117.47C51.8613 117.47 51.8613 115.042 53.4537 115.042H59.0267C60.619 115.042 60.619 117.47 59.0267 117.47H53.4537ZM53.4537 111.283C51.8613 111.283 51.8613 108.856 53.4537 108.856H88.0126C89.6049 108.856 89.6049 111.283 88.0126 111.283H53.4537ZM64.1575 117.47C62.5652 117.47 62.5652 115.042 64.1575 115.042H87.9831C89.5754 115.042 89.5754 117.47 87.9831 117.47H64.1575ZM96.9178 127.474L112.281 111.431L102.963 106.074L96.9178 127.474ZM105.204 122.324L95.3549 132.625C94.4703 133.602 92.937 132.714 93.2908 131.5L100.81 104.86C100.132 104.475 99.5421 103.883 100.043 103.025L112.723 80.8248V28.3144C112.723 25.5616 110.482 23.312 107.74 23.312H91.787C91.1383 25.1768 89.369 26.4792 87.3344 26.4792H48.4113C46.3767 26.4792 44.6075 25.1768 43.9588 23.312H28.0062C25.2639 23.312 23.0229 25.5616 23.0229 28.3144V135.97C23.0229 138.722 25.2639 140.972 28.0062 140.972H107.71C110.452 140.972 112.693 138.722 112.693 135.97V114.48L105.204 122.324ZM147.37 49.952C148.697 47.6136 150.083 45.9264 149.346 43.292C148.078 38.6152 141.856 37.9344 139.527 42.0192L138.052 44.5944L147.37 49.952ZM150.909 48.5904L149.434 51.1656L149.818 51.4024C150.407 51.728 150.584 52.468 150.26 53.06L121.628 103.173V148.786C121.628 149.467 121.097 150 120.419 150H15.2383C14.5601 150 14.0293 149.467 14.0293 148.786V15.5272C14.0293 14.8464 14.5601 14.3136 15.2383 14.3136H43.7229C43.8703 13.3664 44.3716 12.36 45.0498 11.7088C45.9049 10.8504 47.0844 10.3176 48.3819 10.3176H58.4665C57.6408 8.1568 56.6678 6.3512 58.2601 4.0424C59.1447 2.74 60.5601 2 62.1229 2H73.5639C76.8665 2 79.137 5.3152 77.9575 8.4232L77.2203 10.3472H87.3049C89.6344 10.3472 91.6101 12.064 91.9639 14.3432H120.449C121.127 14.3432 121.657 14.876 121.657 15.5568V65.1072L133.924 43.6472C134.249 43.0552 134.986 42.8776 135.575 43.2032L135.959 43.44C137.581 40.5984 138.613 38.2008 142.151 37.224C148.845 35.3592 154.329 42.5816 150.909 48.5904ZM119.24 107.406L116.379 112.438C116.114 112.882 115.613 113.118 115.111 113.03V135.999C115.111 140.084 111.779 143.429 107.71 143.429H28.0062C23.937 143.429 20.6049 140.084 20.6049 135.999V28.3144C20.6049 24.2296 23.937 20.8848 28.0062 20.8848H43.6934V16.7408H16.4472V147.573H119.24V107.406ZM115.111 76.5624L119.24 69.3104V16.7408H92.0229V20.9144H107.71C111.779 20.9144 115.111 24.2592 115.111 28.344V76.5624ZM147.606 52.8824L135.428 45.8672L121.54 70.1688C119.564 73.8096 116.969 77.9832 114.993 81.6536C114.964 81.6832 114.964 81.7128 114.934 81.7424L102.727 103.143L114.905 110.158L147.606 52.8824ZM30.3652 122.768H46.0819C46.7601 122.768 47.2908 123.301 47.2908 123.982V134.993C47.2908 135.674 46.7601 136.206 46.0819 136.206H30.3652C29.687 136.206 29.1562 135.674 29.1562 134.993V123.982C29.1562 123.33 29.687 122.768 30.3652 122.768ZM44.8434 125.225H31.5742V133.809H44.8729V125.225H44.8434ZM30.3652 106.429H46.0819C46.7601 106.429 47.2908 106.962 47.2908 107.642V118.654C47.2908 119.334 46.7601 119.867 46.0819 119.867H30.3652C29.687 119.867 29.1562 119.334 29.1562 118.654V107.642C29.1562 106.991 29.687 106.429 30.3652 106.429ZM44.8434 108.856H31.5742V117.44H44.8729V108.856H44.8434ZM60.2357 12.7448H48.4113C47.7626 12.7448 47.2024 13.0112 46.7896 13.4256C46.1408 14.0768 46.1113 14.6984 46.1113 15.5272V21.7728C46.1113 23.0456 47.1434 24.0816 48.4113 24.0816H87.3344C88.6024 24.0816 89.6344 23.0456 89.6344 21.7728V15.0536C89.6344 13.7808 88.6024 12.7448 87.3344 12.7448H75.5101C74.6844 12.7448 74.0947 11.8864 74.3895 11.0872L75.746 7.5352C76.3357 6.0256 75.2447 4.3976 73.5934 4.3976H62.1819C60.5306 4.3976 59.469 5.996 60.0293 7.5352C60.2652 8.1568 61.4742 11.0576 61.4742 11.5312C61.4447 12.212 60.8844 12.7448 60.2357 12.7448Z" fill="#FFA800"></path> <path d="M68.6395 59.6904L83.796 44.7128L84.3857 42.108C84.4447 41.812 84.6216 41.5456 84.8575 41.3976L92.5536 35.3592C93.0254 34.9744 93.7331 35.0336 94.146 35.448L98.9524 40.2728C99.3947 40.7168 99.4242 41.4568 99.0113 41.9304L92.996 49.6264C92.7895 49.8632 92.5536 50.0112 92.2588 50.0704L89.6934 50.6624L74.5665 65.64L79.4024 70.4944C88.3665 79.4928 89.9588 73.5728 95.5908 79.256C98.8934 82.5712 99.8075 87.5736 97.9793 91.836C97.6549 92.6352 96.6229 92.8128 96.0037 92.2208L88.8678 85.0576C87.7472 83.9328 84.1498 87.544 85.2703 88.6688L92.4062 95.8616C92.996 96.4536 92.8485 97.5192 91.9934 97.8448C87.6293 99.5912 82.8819 98.7624 79.5203 95.4176C74.0062 89.8824 79.4613 88.1952 71.4408 79.8184C70.6742 79.0192 69.937 78.2496 69.1703 77.4504L48.9126 97.756C47.1139 99.5616 44.1947 99.5616 42.396 97.756L36.8524 92.1912C35.0537 90.3856 35.0537 87.4552 36.8524 85.6496L57.0806 65.344C55.7537 64.012 54.4857 62.7688 53.4831 61.7328C46.4652 54.688 45.3447 61.0816 39.2113 54.9248C35.9088 51.6096 34.9947 46.6072 36.8229 42.3448C37.1472 41.5456 38.1793 41.368 38.7985 41.96L45.9344 49.1232C47.0549 50.248 50.6524 46.6368 49.5319 45.512L42.3665 38.3488C41.7767 37.7568 41.9537 36.6912 42.8088 36.3656C47.1729 34.6192 51.9203 35.448 55.2819 38.7928C60.9434 44.4464 55.046 46.0744 64.0101 55.0728L68.6395 59.6904ZM72.8267 63.8936L88.1896 48.6792C88.7793 48.0872 90.9908 47.9688 91.3152 47.7616L96.446 41.1904L93.1434 37.8752L86.5972 43.0256C86.3908 43.3216 86.2434 45.6008 85.6831 46.1336L70.3203 61.3776L72.8267 63.8936ZM69.996 74.7568L73.2101 78.072C81.7024 86.952 76.6601 89.024 81.2601 93.6416C83.4126 95.8024 86.4203 96.6904 89.3395 96.0984L83.619 90.3264C80.1985 86.8928 87.2165 79.8776 90.637 83.2816L96.3575 89.0536C96.9472 86.1528 96.0626 83.104 93.9101 80.9432C89.1921 76.2368 87.128 81.6536 77.6921 72.1816L62.2998 56.76C52.8934 47.3176 58.2895 45.216 53.5716 40.5096C51.419 38.3488 48.4113 37.4608 45.4921 38.0528L51.2421 43.8248C54.6626 47.2584 47.6447 54.2736 44.2242 50.8696L38.5037 45.1272C37.9139 48.028 38.7985 51.0768 40.9511 53.2376C46.1113 58.4176 47.5267 52.32 55.2229 60.0456L69.996 74.7568ZM58.8203 67.0016L38.5921 87.3072C37.737 88.1656 37.737 89.5568 38.5921 90.4152L44.1357 95.98C44.9908 96.8384 46.3767 96.8384 47.2319 95.98L67.4895 75.6448L58.8203 67.0016ZM67.8434 6.1144C71.4703 6.1144 73.3575 10.584 70.7331 13.1592C68.1088 15.764 63.7152 13.84 63.7152 10.2288C63.7447 7.9792 65.5729 6.1144 67.8434 6.1144ZM69.0524 9.0152C67.4895 7.4464 65.0716 9.844 66.6639 11.4424C68.2267 13.0112 70.6152 10.6136 69.0524 9.0152ZM87.9831 131.411C89.5754 131.411 89.5754 133.838 87.9831 133.838H82.4101C80.8177 133.838 80.8177 131.411 82.4101 131.411H87.9831ZM87.9831 125.195C89.5754 125.195 89.5754 127.622 87.9831 127.622H53.4537C51.8613 127.622 51.8613 125.195 53.4537 125.195H87.9831ZM77.2793 131.411C78.8716 131.411 78.8716 133.838 77.2793 133.838H53.4537C51.8613 133.838 51.8613 131.411 53.4537 131.411H77.2793ZM53.4537 117.47C51.8613 117.47 51.8613 115.042 53.4537 115.042H59.0267C60.619 115.042 60.619 117.47 59.0267 117.47H53.4537ZM53.4537 111.283C51.8613 111.283 51.8613 108.856 53.4537 108.856H88.0126C89.6049 108.856 89.6049 111.283 88.0126 111.283H53.4537ZM64.1575 117.47C62.5652 117.47 62.5652 115.042 64.1575 115.042H87.9831C89.5754 115.042 89.5754 117.47 87.9831 117.47H64.1575ZM96.9178 127.474L112.281 111.431L102.963 106.074L96.9178 127.474ZM105.204 122.324L95.3549 132.625C94.4703 133.602 92.937 132.714 93.2908 131.5L100.81 104.86C100.132 104.475 99.5421 103.883 100.043 103.025L112.723 80.8248V28.3144C112.723 25.5616 110.482 23.312 107.74 23.312H91.787C91.1383 25.1768 89.369 26.4792 87.3344 26.4792H48.4113C46.3767 26.4792 44.6075 25.1768 43.9588 23.312H28.0062C25.2639 23.312 23.0229 25.5616 23.0229 28.3144V135.97C23.0229 138.722 25.2639 140.972 28.0062 140.972H107.71C110.452 140.972 112.693 138.722 112.693 135.97V114.48L105.204 122.324ZM147.37 49.952C148.697 47.6136 150.083 45.9264 149.346 43.292C148.078 38.6152 141.856 37.9344 139.527 42.0192L138.052 44.5944L147.37 49.952ZM150.909 48.5904L149.434 51.1656L149.818 51.4024C150.407 51.728 150.584 52.468 150.26 53.06L121.628 103.173V148.786C121.628 149.467 121.097 150 120.419 150H15.2383C14.5601 150 14.0293 149.467 14.0293 148.786V15.5272C14.0293 14.8464 14.5601 14.3136 15.2383 14.3136H43.7229C43.8703 13.3664 44.3716 12.36 45.0498 11.7088C45.9049 10.8504 47.0844 10.3176 48.3819 10.3176H58.4665C57.6408 8.1568 56.6678 6.3512 58.2601 4.0424C59.1447 2.74 60.5601 2 62.1229 2H73.5639C76.8665 2 79.137 5.3152 77.9575 8.4232L77.2203 10.3472H87.3049C89.6344 10.3472 91.6101 12.064 91.9639 14.3432H120.449C121.127 14.3432 121.657 14.876 121.657 15.5568V65.1072L133.924 43.6472C134.249 43.0552 134.986 42.8776 135.575 43.2032L135.959 43.44C137.581 40.5984 138.613 38.2008 142.151 37.224C148.845 35.3592 154.329 42.5816 150.909 48.5904ZM119.24 107.406L116.379 112.438C116.114 112.882 115.613 113.118 115.111 113.03V135.999C115.111 140.084 111.779 143.429 107.71 143.429H28.0062C23.937 143.429 20.6049 140.084 20.6049 135.999V28.3144C20.6049 24.2296 23.937 20.8848 28.0062 20.8848H43.6934V16.7408H16.4472V147.573H119.24V107.406ZM115.111 76.5624L119.24 69.3104V16.7408H92.0229V20.9144H107.71C111.779 20.9144 115.111 24.2592 115.111 28.344V76.5624ZM147.606 52.8824L135.428 45.8672L121.54 70.1688C119.564 73.8096 116.969 77.9832 114.993 81.6536C114.964 81.6832 114.964 81.7128 114.934 81.7424L102.727 103.143L114.905 110.158L147.606 52.8824ZM30.3652 122.768H46.0819C46.7601 122.768 47.2908 123.301 47.2908 123.982V134.993C47.2908 135.674 46.7601 136.206 46.0819 136.206H30.3652C29.687 136.206 29.1562 135.674 29.1562 134.993V123.982C29.1562 123.33 29.687 122.768 30.3652 122.768ZM44.8434 125.225H31.5742V133.809H44.8729V125.225H44.8434ZM30.3652 106.429H46.0819C46.7601 106.429 47.2908 106.962 47.2908 107.642V118.654C47.2908 119.334 46.7601 119.867 46.0819 119.867H30.3652C29.687 119.867 29.1562 119.334 29.1562 118.654V107.642C29.1562 106.991 29.687 106.429 30.3652 106.429ZM44.8434 108.856H31.5742V117.44H44.8729V108.856H44.8434ZM60.2357 12.7448H48.4113C47.7626 12.7448 47.2024 13.0112 46.7896 13.4256C46.1408 14.0768 46.1113 14.6984 46.1113 15.5272V21.7728C46.1113 23.0456 47.1434 24.0816 48.4113 24.0816H87.3344C88.6024 24.0816 89.6344 23.0456 89.6344 21.7728V15.0536C89.6344 13.7808 88.6024 12.7448 87.3344 12.7448H75.5101C74.6844 12.7448 74.0947 11.8864 74.3895 11.0872L75.746 7.5352C76.3357 6.0256 75.2447 4.3976 73.5934 4.3976H62.1819C60.5306 4.3976 59.469 5.996 60.0293 7.5352C60.2652 8.1568 61.4742 11.0576 61.4742 11.5312C61.4447 12.212 60.8844 12.7448 60.2357 12.7448Z" stroke="#FFA800" stroke-width="1.6" mask="url(#path-1-outside-1_520_10)"></path> </g> <defs> <clipPath id="clip0_520_10"> <rect width="138" height="148" fill="white" transform="translate(14 2)"></rect> </clipPath> </defs> </svg> 