<svg width="40" height="40" viewBox="0 0 40 40" fill="none" xmlns="http://www.w3.org/2000/svg">
<g clip-path="url(#clip0_142_89)">
<path d="M23.5702 35.1187C23.6402 35.5849 23.9236 35.9916 24.3367 36.2183C24.7498 36.4453 25.245 36.4664 25.6759 36.2751L32.0512 33.4589C32.367 33.3197 32.5241 32.9628 32.4137 32.6357L29.2145 23.1305C28.7026 21.6308 27.1764 20.7265 25.6152 20.9975L24.6153 21.1769C22.903 21.4756 21.746 23.0921 22.016 24.8095L23.5702 35.1187ZM25.138 35.0552C25.0873 35.079 25.0284 35.0765 24.9799 35.0485C24.9295 35.0219 24.8951 34.9722 24.888 34.9154L23.3295 24.6149C23.2975 24.393 23.3052 24.1672 23.3524 23.9482L24.4795 24.8388C25.0238 25.2633 25.4299 25.8399 25.6459 26.4959L28.0887 33.7555L25.138 35.0552ZM24.8475 22.494L25.847 22.3147C25.9545 22.2955 26.0634 22.2859 26.1726 22.2859C26.9753 22.2881 27.6887 22.7989 27.9492 23.5583L30.9561 32.4898L29.3119 33.2157L26.9088 26.0751C26.611 25.1726 26.052 24.3787 25.3027 23.7944L24.0807 22.8279C24.3077 22.6601 24.5698 22.5459 24.8475 22.494Z" fill="black"/>
<path d="M1.70895 6.33126L11.662 9.26397C11.7966 9.30397 11.9216 9.37077 12.0294 9.46053L15.54 12.3853L16.106 12.8585L20.6927 36.6997C20.9246 37.9116 21.6966 38.9518 22.7898 39.5241C23.883 40.0962 25.1776 40.1383 26.3056 39.6383L32.7011 36.813C33.3241 37.551 34.352 37.803 35.246 37.4369L38.6194 36.0532C39.7553 35.5876 40.2987 34.2897 39.8337 33.1537L33.6902 18.1574L34.1461 17.6308C34.9964 16.6459 34.8894 15.1588 33.9069 14.3057L26.8777 8.21561C26.4045 7.80587 25.7878 7.60113 25.1639 7.64629C24.5396 7.69145 23.959 7.9828 23.5495 8.45608L22.4127 9.77108L19.8577 7.64233H19.8537L15.1214 3.79302C14.8788 3.59531 14.5991 3.44825 14.2988 3.36038L3.51705 0.182626C2.26852 -0.184119 0.958672 0.529845 0.590403 1.77806L0.113207 3.39852C-0.0649785 3.99898 0.00336673 4.64551 0.302682 5.19593C0.601998 5.74605 1.10788 6.15459 1.70895 6.33126ZM22.993 11.1408L24.5582 9.33053C24.7361 9.12491 24.9884 8.99827 25.26 8.97842C25.5313 8.95889 25.7995 9.04795 26.0051 9.22584L33.0342 15.3135C33.4614 15.6842 33.5078 16.3304 33.1383 16.7585L32.4146 17.5954C32.2498 17.7855 32.2059 18.0522 32.3011 18.2847L38.6004 33.6556C38.7866 34.1099 38.569 34.6292 38.1147 34.8154L34.7402 36.1984C34.5216 36.2878 34.2766 36.2869 34.0588 36.1957C33.8413 36.1044 33.6689 35.9302 33.5795 35.7118C33.5115 35.5452 33.3791 35.4131 33.2118 35.3456C33.0449 35.2782 32.8579 35.2809 32.6931 35.3539L25.7671 38.4139C25.0104 38.7483 24.1427 38.7193 23.4101 38.3355C22.6772 37.9516 22.1595 37.2548 22.0032 36.4423L17.3716 12.3679C17.3423 12.2169 17.2618 12.0805 17.1437 11.9819L16.9344 11.8074L19.4879 9.06936L22.0633 11.2143C22.3422 11.4462 22.7556 11.4123 22.993 11.1383V11.1408ZM1.39163 3.77716L1.8676 2.15549C1.94419 1.89431 2.12177 1.67463 2.36066 1.54434C2.59957 1.41437 2.88027 1.38447 3.14115 1.46166L13.9162 4.63361C14.0468 4.67206 14.1682 4.73582 14.2735 4.82156L18.4566 8.22084L15.9092 10.9537L12.8825 8.43077C12.6353 8.2242 12.3485 8.07069 12.0395 7.98006L2.08484 5.04948C1.54205 4.8893 1.23205 4.31995 1.39163 3.77716Z" fill="black"/>
<path d="M4.6782 22.4943L4.66695 22.494L4.65569 22.4943C3.54602 22.5192 2.47478 22.0897 1.6902 21.3051L1.33664 21.6587L1.69019 21.3051C0.905593 20.5205 0.476036 19.4493 0.501033 18.3396L0.50116 18.3396V18.3284C0.50116 17.8862 0.638438 17.3143 0.888541 16.6594C1.13579 16.0119 1.47983 15.3176 1.86208 14.6414C2.62556 13.2907 3.51755 12.0537 4.03149 11.4591C4.19634 11.2846 4.42607 11.1855 4.66695 11.1855C4.90745 11.1855 5.1372 11.2846 5.30209 11.4591C5.81603 12.0537 6.70802 13.2907 7.47151 14.6414C7.85375 15.3176 8.19779 16.0119 8.44504 16.6594C8.69514 17.3143 8.83242 17.8862 8.83242 18.3284H8.83229L8.83255 18.3397C8.8578 19.4492 8.42806 20.5205 7.6434 21.3051C6.85879 22.0897 5.78754 22.5192 4.6782 22.4943ZM5.04473 11.6688L4.66681 11.2329L4.28905 11.6689C3.67417 12.3786 2.82236 13.6055 2.12399 14.8476C1.77381 15.4705 1.45607 16.108 1.22447 16.6958C0.998956 17.2681 0.836204 17.8395 0.834214 18.3195C0.801032 19.3481 1.1949 20.3445 1.92283 21.0725L2.27638 20.7189L1.92283 21.0725C2.64868 21.7983 3.6415 22.192 4.66694 22.1614C5.69199 22.192 6.68515 21.7984 7.41074 21.0725C8.13868 20.3445 8.53259 19.348 8.49936 18.3194C8.49736 17.8394 8.33468 17.2679 8.10922 16.6955C7.87767 16.1076 7.56 15.4701 7.20987 14.8472C6.51161 13.605 5.65984 12.3783 5.04473 11.6688Z" fill="#8F0C2C" stroke="#8F0C2C"/>
<path d="M19.1104 12.5171C18.9389 12.561 18.7915 12.6712 18.7012 12.8234C18.6109 12.976 18.5849 13.1581 18.6292 13.3296L18.9624 14.6349C19.0381 14.9296 19.3035 15.1359 19.6077 15.1362C19.6635 15.1365 19.7191 15.1295 19.7731 15.1155C20.1298 15.0245 20.3452 14.6614 20.2542 14.3048L19.921 12.9992C19.8774 12.8277 19.7676 12.6806 19.6156 12.5903C19.4637 12.5 19.2818 12.4735 19.1104 12.5171Z" fill="black"/>
<path d="M19.6809 16.816L20.6255 20.8152C20.6966 21.1157 20.9651 21.3284 21.2738 21.3284C21.3257 21.3287 21.377 21.3226 21.4273 21.3103C21.7849 21.2261 22.007 20.8682 21.9238 20.5103L20.9795 16.5113C20.9245 16.2794 20.7503 16.0942 20.522 16.0258C20.2938 15.9571 20.0464 16.0157 19.8728 16.179C19.6995 16.3425 19.6263 16.586 19.6809 16.8179V16.816Z" fill="black"/>
</g>
<defs>
<clipPath id="clip0_142_89">
<rect width="40" height="40" fill="white"/>
</clipPath>
</defs>
</svg>
