<svg width="64" height="54" viewBox="0 0 64 54" fill="none" xmlns="http://www.w3.org/2000/svg">
<g filter="url(#filter0_d_758_68)">
<path fill-rule="evenodd" clip-rule="evenodd" d="M31.2176 39.4902C30.0338 41.3511 28.1177 42.4682 26.1667 42.4682C22.9997 42.4682 19.9246 39.5244 19.9246 35.2341C19.9246 30.9437 22.9997 28 26.1667 28C28.15 28 30.0972 29.1544 31.2757 31.071L34.6013 31.0442C33.1557 27.4812 29.9229 25 26.1667 25C21.0625 25 16.9246 29.582 16.9246 35.2341C16.9246 40.8862 21.0625 45.4682 26.1667 45.4682C29.9091 45.4682 33.1319 43.0051 34.5853 39.4631L31.2176 39.4902Z" fill="#EB0A1E"/>
</g>
<rect x="15" y="35.9541" width="11.8158" height="1.2" rx="0.6" fill="black" stroke="black" stroke-width="0.3"/>
<rect x="15" y="33.7842" width="11.8158" height="1.2" rx="0.6" fill="black" stroke="black" stroke-width="0.2"/>
<path d="M10 18.875V2H61.5625V35.75H47.5" stroke="black" stroke-width="4" stroke-miterlimit="10"/>
<path d="M48.875 18H2V51.75H48.875V18Z" stroke="black" stroke-width="4" stroke-miterlimit="10"/>
<defs>
<filter id="filter0_d_758_68" x="12.9246" y="25" width="25.6767" height="28.4678" filterUnits="userSpaceOnUse" color-interpolation-filters="sRGB">
<feFlood flood-opacity="0" result="BackgroundImageFix"/>
<feColorMatrix in="SourceAlpha" type="matrix" values="0 0 0 0 0 0 0 0 0 0 0 0 0 0 0 0 0 0 127 0" result="hardAlpha"/>
<feOffset dy="4"/>
<feGaussianBlur stdDeviation="2"/>
<feComposite in2="hardAlpha" operator="out"/>
<feColorMatrix type="matrix" values="0 0 0 0 0 0 0 0 0 0 0 0 0 0 0 0 0 0 0.25 0"/>
<feBlend mode="normal" in2="BackgroundImageFix" result="effect1_dropShadow_758_68"/>
<feBlend mode="normal" in="SourceGraphic" in2="effect1_dropShadow_758_68" result="shape"/>
</filter>
</defs>
</svg>
