<svg width="64" height="54" viewBox="0 0 64 54" fill="none" xmlns="http://www.w3.org/2000/svg">
<path d="M10 18.875V2H61.5625V35.75H47.5" stroke="black" stroke-width="4" stroke-miterlimit="10"/>
<path d="M48.875 18H2V51.75H48.875V18Z" stroke="black" stroke-width="4" stroke-miterlimit="10"/>
<g filter="url(#filter0_d_758_71)">
<path fill-rule="evenodd" clip-rule="evenodd" d="M28.1556 37.9602C27.3922 38.9331 26.3199 39.47 25.3176 39.47C23.4918 39.47 21.4337 37.6884 21.4337 34.735C21.4337 31.7816 23.4918 30 25.3176 30C26.3494 30 27.4554 30.5689 28.2222 31.5968L31.6004 31.5692C30.5238 28.8757 28.1157 27 25.3176 27C21.5158 27 18.4337 30.4631 18.4337 34.735C18.4337 39.0069 21.5158 42.47 25.3176 42.47C28.1048 42.47 30.5051 40.6088 31.5878 37.9322L28.1556 37.9602Z" fill="#EB0A1E"/>
</g>
<rect x="17" y="35.2793" width="8.80091" height="1.00269" rx="0.501343" fill="#EB0A1E"/>
<rect x="17" y="33.6396" width="8.80091" height="1.00269" rx="0.501343" fill="#EB0A1E"/>
<defs>
<filter id="filter0_d_758_71" x="14.4337" y="27" width="21.1667" height="23.4697" filterUnits="userSpaceOnUse" color-interpolation-filters="sRGB">
<feFlood flood-opacity="0" result="BackgroundImageFix"/>
<feColorMatrix in="SourceAlpha" type="matrix" values="0 0 0 0 0 0 0 0 0 0 0 0 0 0 0 0 0 0 127 0" result="hardAlpha"/>
<feOffset dy="4"/>
<feGaussianBlur stdDeviation="2"/>
<feComposite in2="hardAlpha" operator="out"/>
<feColorMatrix type="matrix" values="0 0 0 0 0 0 0 0 0 0 0 0 0 0 0 0 0 0 0.25 0"/>
<feBlend mode="normal" in2="BackgroundImageFix" result="effect1_dropShadow_758_71"/>
<feBlend mode="normal" in="SourceGraphic" in2="effect1_dropShadow_758_71" result="shape"/>
</filter>
</defs>
</svg>
