<svg width="40" height="40" viewBox="0 0 40 40" fill="none" xmlns="http://www.w3.org/2000/svg">
<path d="M4.10821 19.8177C4.07409 20.2624 4.05762 20.7141 4.05762 21.1706C4.05778 24.6132 5.09618 27.9758 7.03718 30.819C8.97818 33.6623 11.7315 35.8541 14.9376 37.1081C18.1437 38.3621 21.6535 38.6201 25.0085 37.8483C28.3635 37.0765 31.4077 35.3109 33.7436 32.782C36.0794 30.2531 37.5983 27.0785 38.1018 23.6729C38.6053 20.2673 38.0701 16.789 36.5659 13.6924C35.0618 10.5957 32.6587 8.02469 29.6706 6.31509C26.6825 4.60549 23.2482 3.8368 19.8164 4.10942C19.8164 4.10942 11.6306 5.42825 8.23526 8.82354C4.83997 12.2188 4.10821 19.8177 4.10821 19.8177ZM28.52 28.52C26.8199 30.2186 24.5835 31.2752 22.1918 31.5098C19.8001 31.7444 17.401 31.1425 15.4032 29.8067C13.4055 28.4709 11.9327 26.4837 11.2358 24.1838C10.5389 21.8838 10.6609 19.4134 11.5811 17.1934C12.5013 14.9733 14.1628 13.141 16.2825 12.0086C18.4021 10.8762 20.8489 10.5137 23.2058 10.9829C25.5628 11.4521 27.6841 12.7239 29.2085 14.5818C30.7329 16.4397 31.566 18.7686 31.5659 21.1718C31.5684 22.537 31.3005 23.8893 30.7777 25.1505C30.2549 26.4117 29.4876 27.5569 28.52 28.52Z" stroke="#4E5860" stroke-width="2" stroke-linecap="round" stroke-linejoin="round"/>
<path d="M21.1765 10.5883C19.0823 10.5883 17.0352 11.2092 15.294 12.3727C13.5528 13.5361 12.1956 15.1898 11.3942 17.1246C10.5928 19.0593 10.3832 21.1882 10.7917 23.2422C11.2003 25.2961 12.2087 27.1827 13.6895 28.6635C15.1703 30.1443 17.0569 31.1527 19.1108 31.5613C21.1648 31.9698 23.2937 31.7601 25.2284 30.9587C27.1632 30.1573 28.8168 28.8002 29.9803 27.059C31.1437 25.3178 31.7647 23.2706 31.7647 21.1765C31.761 18.3695 30.6443 15.6785 28.6594 13.6936C26.6745 11.7087 23.9835 10.592 21.1765 10.5883ZM21.1765 12.873C21.3328 12.872 21.4877 12.9019 21.6324 12.9608C21.7772 13.0198 21.9089 13.1067 22.02 13.2165C22.1312 13.3264 22.2196 13.457 22.2803 13.601C22.3409 13.7451 22.3726 13.8996 22.3736 14.0559C22.3745 14.2122 22.3446 14.3671 22.2857 14.5118C22.2267 14.6566 22.1399 14.7883 22.03 14.8994C21.9202 15.0106 21.7895 15.099 21.6455 15.1597C21.5014 15.2203 21.3469 15.252 21.1906 15.253C20.875 15.2548 20.5716 15.1313 20.3471 14.9094C20.1226 14.6876 19.9954 14.3856 19.9936 14.07C19.9917 13.7544 20.1153 13.451 20.3371 13.2265C20.559 13.002 20.8609 12.8748 21.1765 12.873ZM13.9683 22.4306C13.8126 22.4185 13.6609 22.3758 13.5217 22.305C13.3825 22.2343 13.2587 22.1368 13.1572 22.0181C13.0557 21.8995 12.9786 21.762 12.9302 21.6136C12.8818 21.4651 12.8632 21.3086 12.8753 21.153C12.8874 20.9973 12.9301 20.8456 13.0009 20.7064C13.0717 20.5672 13.1691 20.4434 13.2878 20.3419C13.5274 20.1369 13.8386 20.0355 14.153 20.06C14.4673 20.0845 14.7591 20.2329 14.964 20.4725C15.169 20.7121 15.2704 21.0233 15.2459 21.3377C15.2214 21.652 15.073 21.9438 14.8334 22.1487C14.5938 22.3537 14.2826 22.4551 13.9683 22.4306ZM21.1765 29.6388C20.941 29.64 20.7104 29.5712 20.5141 29.441C20.3178 29.3109 20.1646 29.1254 20.074 28.9081C19.9833 28.6907 19.9593 28.4513 20.0049 28.2203C20.0506 27.9892 20.1639 27.7769 20.3304 27.6104C20.497 27.4439 20.7092 27.3306 20.9403 27.2849C21.1713 27.2393 21.4107 27.2633 21.6281 27.354C21.8454 27.4446 22.0309 27.5978 22.161 27.7941C22.2912 27.9904 22.36 28.221 22.3588 28.4565C22.353 28.7662 22.2258 29.0612 22.0047 29.2781C21.7836 29.4951 21.4862 29.6165 21.1765 29.6165V29.6388ZM21.1765 24.9824C20.4279 24.9826 19.6961 24.7608 19.0735 24.3451C18.451 23.9294 17.9657 23.3384 17.679 22.6468C17.3924 21.9553 17.3173 21.1943 17.4632 20.46C17.6091 19.7258 17.9695 19.0513 18.4987 18.5219C19.028 17.9925 19.7023 17.6319 20.4365 17.4858C21.1707 17.3396 21.9318 17.4145 22.6234 17.7009C23.315 17.9874 23.9062 18.4725 24.3221 19.0949C24.738 19.7173 24.96 20.4491 24.96 21.1977C24.9544 22.1974 24.5533 23.1544 23.8444 23.8593C23.1355 24.5643 22.1763 24.96 21.1765 24.96V24.9824ZM29.5447 21.2706C29.5201 21.5851 29.3715 21.877 29.1317 22.0819C28.8919 22.2869 28.5804 22.3882 28.2659 22.3636C27.9514 22.3389 27.6596 22.1903 27.4546 21.9505C27.2496 21.7107 27.1483 21.3992 27.173 21.0847C27.1852 20.929 27.2279 20.7772 27.2988 20.638C27.3697 20.4988 27.4673 20.3749 27.586 20.2734C27.7048 20.1719 27.8424 20.0948 27.9909 20.0465C28.1394 19.9982 28.2961 19.9796 28.4518 19.9918C28.6075 20.004 28.7593 20.0468 28.8985 20.1176C29.0377 20.1885 29.1616 20.2861 29.2631 20.4048C29.3646 20.5236 29.4417 20.6612 29.49 20.8097C29.5383 20.9583 29.5569 21.1149 29.5447 21.2706Z" stroke="#4E5860" stroke-width="2" stroke-linecap="round" stroke-linejoin="round"/>
<path d="M2.35418 18.8176H7.66241C7.82683 18.8193 7.98547 18.7571 8.10487 18.6441C8.22427 18.531 8.2951 18.376 8.30241 18.2118C8.45211 15.6324 9.54419 13.198 11.3711 11.3711C13.198 9.54412 15.6325 8.45204 18.2118 8.30235C18.3761 8.29503 18.5311 8.22421 18.6441 8.1048C18.7572 7.9854 18.8194 7.82676 18.8177 7.66235V2.35411C18.8177 2.18518 18.7509 2.02311 18.6319 1.90322C18.5129 1.78333 18.3513 1.71535 18.1824 1.71411H18.1542C13.8494 1.88715 9.76762 3.67476 6.72122 6.72116C3.67483 9.76755 1.88722 13.8493 1.71418 18.1541C1.71101 18.2401 1.72523 18.3259 1.75597 18.4063C1.78672 18.4866 1.83336 18.56 1.8931 18.6219C1.95285 18.6839 2.02448 18.7332 2.1037 18.7668C2.18292 18.8004 2.26811 18.8177 2.35418 18.8176Z" fill="#4E5860"/>
</svg>
