<svg width="45" height="45" viewBox="0 0 45 45" fill="none" xmlns="http://www.w3.org/2000/svg">
<mask id="path-1-inside-1_760_98" fill="white">
<path d="M18.4821 0C18.2898 0.000139594 18.1039 0.0692557 17.9581 0.194793C17.8124 0.320331 17.7166 0.493962 17.688 0.684146L16.9315 5.78072C16.1378 6.04552 15.3664 6.36367 14.6181 6.7379L10.481 3.66865C10.3259 3.55366 10.1347 3.4983 9.94214 3.51271C9.74963 3.52711 9.56874 3.61032 9.43255 3.74711L3.74791 9.43054C3.61191 9.56652 3.5292 9.74676 3.5148 9.93852C3.5004 10.1303 3.55527 10.3208 3.66944 10.4756L6.73619 14.6087C6.36219 15.3586 6.04277 16.1327 5.77881 16.9279L0.687433 17.6811C0.496101 17.7091 0.321265 17.805 0.194999 17.9515C0.0687317 18.0979 -0.000500135 18.2849 2.72015e-06 18.4782V26.5122C0.000142343 26.7045 0.0692731 26.8904 0.194837 27.0361C0.320401 27.1818 0.494069 27.2776 0.684294 27.3062L5.78509 28.0625C6.04946 28.8545 6.3689 29.6256 6.74247 30.3723L3.66944 34.5117C3.55441 34.6667 3.49904 34.8579 3.51345 35.0504C3.52786 35.2429 3.61109 35.4237 3.74791 35.5599L9.43255 41.2433C9.56913 41.3797 9.75023 41.4623 9.94273 41.4761C10.1352 41.4899 10.3263 41.4341 10.481 41.3187L14.6118 38.2557C15.3627 38.6301 16.1382 38.9485 16.9346 39.2129L17.6817 44.2592V44.2655L17.688 44.3032C17.7022 44.4088 17.7373 44.5106 17.7913 44.6026C17.8452 44.6945 17.917 44.7748 18.0023 44.8388C18.0876 44.9027 18.1848 44.9491 18.2882 44.9751C18.3916 45.0012 18.4991 45.0064 18.6046 44.9904H26.3954C26.5064 45.0077 26.6197 45.0015 26.7281 44.9723C26.8365 44.9431 26.9376 44.8915 27.0249 44.8208C27.1121 44.7502 27.1836 44.662 27.2347 44.562C27.2857 44.4621 27.3153 44.3525 27.3214 44.2404L28.0685 39.2066C28.8622 38.9418 29.6336 38.6236 30.3819 38.2494L34.519 41.3187C34.6741 41.4337 34.8653 41.489 35.0579 41.4746C35.2504 41.4602 35.4313 41.377 35.5674 41.2402L41.2521 35.5568C41.3881 35.4208 41.4708 35.2406 41.4852 35.0488C41.4996 34.857 41.4447 34.6665 41.3306 34.5117L38.2638 30.3755C38.6378 29.6256 38.9572 28.8546 39.2212 28.0594L44.3126 27.3031C44.5028 27.2753 44.6768 27.1802 44.8029 27.0351C44.9291 26.89 44.999 26.7045 45 26.5122V18.4782C45.0006 18.2854 44.9318 18.0987 44.8062 17.9524C44.6806 17.806 44.5065 17.7097 44.3157 17.6811L39.2149 16.9248C38.9505 16.1328 38.6311 15.3617 38.2575 14.615L41.3306 10.4756C41.4447 10.3208 41.4996 10.1303 41.4852 9.93852C41.4708 9.74676 41.3881 9.56652 41.2521 9.43054L35.5674 3.74711C35.4317 3.60985 35.251 3.52606 35.0584 3.51108C34.8659 3.4961 34.6744 3.55092 34.519 3.66552L30.3882 6.72848C29.6373 6.3541 28.8618 6.03562 28.0654 5.77131L27.312 0.681008C27.2828 0.491396 27.1866 0.318507 27.041 0.193603C26.8953 0.0686989 26.7097 2.51926e-05 26.5179 0H18.4821ZM19.1758 1.6068H25.8241L26.543 6.45545C26.5653 6.60673 26.6303 6.74851 26.7303 6.86414C26.8304 6.97977 26.9614 7.06444 27.108 7.10821C28.1542 7.42009 29.1661 7.83721 30.1276 8.35411C30.2622 8.42644 30.4145 8.45895 30.5668 8.44783C30.7191 8.43672 30.8651 8.38244 30.9877 8.29135L34.9208 5.37274L39.6261 10.0739L36.6975 14.0187C36.6069 14.1416 36.5531 14.2877 36.5426 14.44C36.532 14.5923 36.565 14.7444 36.6378 14.8786C37.1541 15.8363 37.5713 16.8432 37.884 17.8851C37.9275 18.0312 38.0118 18.1618 38.1268 18.2619C38.2419 18.3619 38.383 18.4271 38.5338 18.45L43.3929 19.1686V25.8187L38.5432 26.5342C38.3919 26.5565 38.2501 26.6215 38.1344 26.7215C38.0187 26.8216 37.9341 26.9526 37.8903 27.0991C37.5784 28.1451 37.1611 29.1569 36.6441 30.1181C36.5713 30.2523 36.5383 30.4044 36.5488 30.5567C36.5594 30.709 36.6131 30.8551 36.7037 30.978L39.6261 34.9134L34.9208 39.6146L30.9783 36.6897C30.8557 36.5986 30.7097 36.5443 30.5574 36.5332C30.4051 36.5221 30.2527 36.5546 30.1182 36.6269C29.2269 37.1073 28.2871 37.493 27.3214 37.7975V30.8305C30.1988 29.1602 32.1429 26.0537 32.1429 22.4952C32.1387 18.8778 30.1049 15.5657 26.882 13.9214C26.7597 13.8593 26.6237 13.8295 26.4867 13.8349C26.3497 13.8402 26.2163 13.8805 26.0993 13.9519C25.9823 14.0233 25.8855 14.1234 25.8181 14.2428C25.7507 14.3621 25.715 14.4968 25.7143 14.6338V22.0402L22.5 23.9671L19.2857 22.0402V14.6244C19.2858 14.5168 19.2642 14.4102 19.2222 14.3111C19.1803 14.2119 19.1188 14.1222 19.0415 14.0473C18.9642 13.9723 18.8727 13.9137 18.7722 13.8748C18.6718 13.836 18.5646 13.8177 18.457 13.821C18.3389 13.825 18.2232 13.855 18.118 13.9089C14.8919 15.5549 12.8575 18.874 12.8571 22.4952C12.8571 26.0537 14.8012 29.1602 17.6786 30.8305V37.8038C16.7093 37.4999 15.7673 37.1143 14.8723 36.6332C14.7378 36.5609 14.5855 36.5284 14.4332 36.5395C14.2809 36.5506 14.1349 36.6049 14.0123 36.696L10.0792 39.6146L5.37389 34.9134L8.30253 30.9686C8.39314 30.8457 8.44688 30.6996 8.45744 30.5473C8.468 30.395 8.43495 30.2429 8.36217 30.1087C7.8459 29.151 7.42867 28.1441 7.116 27.1022C7.07245 26.9561 6.98823 26.8255 6.87318 26.7254C6.75813 26.6254 6.61699 26.5602 6.46624 26.5373L1.60715 25.8187V19.1718L6.45682 18.4531C6.60814 18.4308 6.74995 18.3658 6.8656 18.2658C6.98125 18.1657 7.06594 18.0347 7.10973 17.8882C7.42164 16.8422 7.83889 15.8304 8.35589 14.8692C8.42868 14.735 8.46172 14.5829 8.45116 14.4306C8.4406 14.2783 8.38686 14.1322 8.29625 14.0093L5.37389 10.0739L10.0792 5.37274L14.0217 8.29762C14.1443 8.38871 14.2903 8.443 14.4426 8.45411C14.5949 8.46523 14.7473 8.43272 14.8818 8.36039C15.8395 7.84429 16.8499 7.42404 17.892 7.11135C18.0375 7.06731 18.1676 6.98288 18.2671 6.86789C18.3665 6.7529 18.4313 6.61206 18.4539 6.46173L19.1758 1.6068ZM17.6786 16.4195V22.4952C17.6788 22.6336 17.7147 22.7696 17.7829 22.89C17.8511 23.0104 17.9492 23.1112 18.0678 23.1825L22.0857 25.5927C22.2108 25.668 22.354 25.7077 22.5 25.7077C22.646 25.7077 22.7892 25.668 22.9143 25.5927L26.9322 23.1825C27.0508 23.1112 27.1489 23.0104 27.2171 22.89C27.2853 22.7696 27.3212 22.6336 27.3214 22.4952V16.4289C29.2026 17.933 30.5328 20.0285 30.5357 22.4952C30.5357 26.9417 26.9475 30.5292 22.5 30.5292C18.0525 30.5292 14.4643 26.9417 14.4643 22.4952C14.4645 20.0257 15.7955 17.9256 17.6786 16.4195ZM19.2857 31.5711C20.2933 31.9293 21.3712 32.136 22.5 32.136C23.6288 32.136 24.7067 31.9293 25.7143 31.5711V43.3836H19.2857V31.5711Z"/>
</mask>
<path d="M18.4821 0C18.2898 0.000139594 18.1039 0.0692557 17.9581 0.194793C17.8124 0.320331 17.7166 0.493962 17.688 0.684146L16.9315 5.78072C16.1378 6.04552 15.3664 6.36367 14.6181 6.7379L10.481 3.66865C10.3259 3.55366 10.1347 3.4983 9.94214 3.51271C9.74963 3.52711 9.56874 3.61032 9.43255 3.74711L3.74791 9.43054C3.61191 9.56652 3.5292 9.74676 3.5148 9.93852C3.5004 10.1303 3.55527 10.3208 3.66944 10.4756L6.73619 14.6087C6.36219 15.3586 6.04277 16.1327 5.77881 16.9279L0.687433 17.6811C0.496101 17.7091 0.321265 17.805 0.194999 17.9515C0.0687317 18.0979 -0.000500135 18.2849 2.72015e-06 18.4782V26.5122C0.000142343 26.7045 0.0692731 26.8904 0.194837 27.0361C0.320401 27.1818 0.494069 27.2776 0.684294 27.3062L5.78509 28.0625C6.04946 28.8545 6.3689 29.6256 6.74247 30.3723L3.66944 34.5117C3.55441 34.6667 3.49904 34.8579 3.51345 35.0504C3.52786 35.2429 3.61109 35.4237 3.74791 35.5599L9.43255 41.2433C9.56913 41.3797 9.75023 41.4623 9.94273 41.4761C10.1352 41.4899 10.3263 41.4341 10.481 41.3187L14.6118 38.2557C15.3627 38.6301 16.1382 38.9485 16.9346 39.2129L17.6817 44.2592V44.2655L17.688 44.3032C17.7022 44.4088 17.7373 44.5106 17.7913 44.6026C17.8452 44.6945 17.917 44.7748 18.0023 44.8388C18.0876 44.9027 18.1848 44.9491 18.2882 44.9751C18.3916 45.0012 18.4991 45.0064 18.6046 44.9904H26.3954C26.5064 45.0077 26.6197 45.0015 26.7281 44.9723C26.8365 44.9431 26.9376 44.8915 27.0249 44.8208C27.1121 44.7502 27.1836 44.662 27.2347 44.562C27.2857 44.4621 27.3153 44.3525 27.3214 44.2404L28.0685 39.2066C28.8622 38.9418 29.6336 38.6236 30.3819 38.2494L34.519 41.3187C34.6741 41.4337 34.8653 41.489 35.0579 41.4746C35.2504 41.4602 35.4313 41.377 35.5674 41.2402L41.2521 35.5568C41.3881 35.4208 41.4708 35.2406 41.4852 35.0488C41.4996 34.857 41.4447 34.6665 41.3306 34.5117L38.2638 30.3755C38.6378 29.6256 38.9572 28.8546 39.2212 28.0594L44.3126 27.3031C44.5028 27.2753 44.6768 27.1802 44.8029 27.0351C44.9291 26.89 44.999 26.7045 45 26.5122V18.4782C45.0006 18.2854 44.9318 18.0987 44.8062 17.9524C44.6806 17.806 44.5065 17.7097 44.3157 17.6811L39.2149 16.9248C38.9505 16.1328 38.6311 15.3617 38.2575 14.615L41.3306 10.4756C41.4447 10.3208 41.4996 10.1303 41.4852 9.93852C41.4708 9.74676 41.3881 9.56652 41.2521 9.43054L35.5674 3.74711C35.4317 3.60985 35.251 3.52606 35.0584 3.51108C34.8659 3.4961 34.6744 3.55092 34.519 3.66552L30.3882 6.72848C29.6373 6.3541 28.8618 6.03562 28.0654 5.77131L27.312 0.681008C27.2828 0.491396 27.1866 0.318507 27.041 0.193603C26.8953 0.0686989 26.7097 2.51926e-05 26.5179 0H18.4821ZM19.1758 1.6068H25.8241L26.543 6.45545C26.5653 6.60673 26.6303 6.74851 26.7303 6.86414C26.8304 6.97977 26.9614 7.06444 27.108 7.10821C28.1542 7.42009 29.1661 7.83721 30.1276 8.35411C30.2622 8.42644 30.4145 8.45895 30.5668 8.44783C30.7191 8.43672 30.8651 8.38244 30.9877 8.29135L34.9208 5.37274L39.6261 10.0739L36.6975 14.0187C36.6069 14.1416 36.5531 14.2877 36.5426 14.44C36.532 14.5923 36.565 14.7444 36.6378 14.8786C37.1541 15.8363 37.5713 16.8432 37.884 17.8851C37.9275 18.0312 38.0118 18.1618 38.1268 18.2619C38.2419 18.3619 38.383 18.4271 38.5338 18.45L43.3929 19.1686V25.8187L38.5432 26.5342C38.3919 26.5565 38.2501 26.6215 38.1344 26.7215C38.0187 26.8216 37.9341 26.9526 37.8903 27.0991C37.5784 28.1451 37.1611 29.1569 36.6441 30.1181C36.5713 30.2523 36.5383 30.4044 36.5488 30.5567C36.5594 30.709 36.6131 30.8551 36.7037 30.978L39.6261 34.9134L34.9208 39.6146L30.9783 36.6897C30.8557 36.5986 30.7097 36.5443 30.5574 36.5332C30.4051 36.5221 30.2527 36.5546 30.1182 36.6269C29.2269 37.1073 28.2871 37.493 27.3214 37.7975V30.8305C30.1988 29.1602 32.1429 26.0537 32.1429 22.4952C32.1387 18.8778 30.1049 15.5657 26.882 13.9214C26.7597 13.8593 26.6237 13.8295 26.4867 13.8349C26.3497 13.8402 26.2163 13.8805 26.0993 13.9519C25.9823 14.0233 25.8855 14.1234 25.8181 14.2428C25.7507 14.3621 25.715 14.4968 25.7143 14.6338V22.0402L22.5 23.9671L19.2857 22.0402V14.6244C19.2858 14.5168 19.2642 14.4102 19.2222 14.3111C19.1803 14.2119 19.1188 14.1222 19.0415 14.0473C18.9642 13.9723 18.8727 13.9137 18.7722 13.8748C18.6718 13.836 18.5646 13.8177 18.457 13.821C18.3389 13.825 18.2232 13.855 18.118 13.9089C14.8919 15.5549 12.8575 18.874 12.8571 22.4952C12.8571 26.0537 14.8012 29.1602 17.6786 30.8305V37.8038C16.7093 37.4999 15.7673 37.1143 14.8723 36.6332C14.7378 36.5609 14.5855 36.5284 14.4332 36.5395C14.2809 36.5506 14.1349 36.6049 14.0123 36.696L10.0792 39.6146L5.37389 34.9134L8.30253 30.9686C8.39314 30.8457 8.44688 30.6996 8.45744 30.5473C8.468 30.395 8.43495 30.2429 8.36217 30.1087C7.8459 29.151 7.42867 28.1441 7.116 27.1022C7.07245 26.9561 6.98823 26.8255 6.87318 26.7254C6.75813 26.6254 6.61699 26.5602 6.46624 26.5373L1.60715 25.8187V19.1718L6.45682 18.4531C6.60814 18.4308 6.74995 18.3658 6.8656 18.2658C6.98125 18.1657 7.06594 18.0347 7.10973 17.8882C7.42164 16.8422 7.83889 15.8304 8.35589 14.8692C8.42868 14.735 8.46172 14.5829 8.45116 14.4306C8.4406 14.2783 8.38686 14.1322 8.29625 14.0093L5.37389 10.0739L10.0792 5.37274L14.0217 8.29762C14.1443 8.38871 14.2903 8.443 14.4426 8.45411C14.5949 8.46523 14.7473 8.43272 14.8818 8.36039C15.8395 7.84429 16.8499 7.42404 17.892 7.11135C18.0375 7.06731 18.1676 6.98288 18.2671 6.86789C18.3665 6.7529 18.4313 6.61206 18.4539 6.46173L19.1758 1.6068ZM17.6786 16.4195V22.4952C17.6788 22.6336 17.7147 22.7696 17.7829 22.89C17.8511 23.0104 17.9492 23.1112 18.0678 23.1825L22.0857 25.5927C22.2108 25.668 22.354 25.7077 22.5 25.7077C22.646 25.7077 22.7892 25.668 22.9143 25.5927L26.9322 23.1825C27.0508 23.1112 27.1489 23.0104 27.2171 22.89C27.2853 22.7696 27.3212 22.6336 27.3214 22.4952V16.4289C29.2026 17.933 30.5328 20.0285 30.5357 22.4952C30.5357 26.9417 26.9475 30.5292 22.5 30.5292C18.0525 30.5292 14.4643 26.9417 14.4643 22.4952C14.4645 20.0257 15.7955 17.9256 17.6786 16.4195ZM19.2857 31.5711C20.2933 31.9293 21.3712 32.136 22.5 32.136C23.6288 32.136 24.7067 31.9293 25.7143 31.5711V43.3836H19.2857V31.5711Z" fill="black" stroke="#8D8D8D" stroke-width="128" mask="url(#path-1-inside-1_760_98)"/>
</svg>
