<svg width="54" height="54" viewBox="0 0 54 54" fill="none" xmlns="http://www.w3.org/2000/svg">
<mask id="path-1-inside-1_760_98" fill="white">
<path d="M22.1786 0C21.9477 0.000167512 21.7246 0.0831068 21.5498 0.233752C21.3749 0.384397 21.2599 0.592754 21.2256 0.820975L20.3178 6.93686C19.3653 7.25463 18.4397 7.63641 17.5417 8.08548L12.5772 4.40239C12.3911 4.26439 12.1616 4.19796 11.9306 4.21525C11.6996 4.23253 11.4825 4.33238 11.3191 4.49653L4.49749 11.3167C4.33429 11.4798 4.23504 11.6961 4.21776 11.9262C4.20048 12.1563 4.26632 12.385 4.40332 12.5707L8.08343 17.5305C7.63463 18.4303 7.25132 19.3592 6.93457 20.3135L0.824919 21.2173C0.595321 21.2509 0.385518 21.3661 0.233998 21.5418C0.082478 21.7174 -0.000600162 21.9419 3.26418e-06 22.1739V31.8147C0.000170812 32.0455 0.0831277 32.2685 0.233805 32.4434C0.384482 32.6182 0.592883 32.7332 0.821153 32.7675L6.94211 33.675C7.25935 34.6254 7.64269 35.5508 8.09096 36.4468L4.40332 41.4141C4.2653 41.6001 4.19885 41.8295 4.21614 42.0605C4.23344 42.2915 4.33331 42.5085 4.49749 42.6719L11.3191 49.492C11.483 49.6556 11.7003 49.7547 11.9313 49.7713C12.1623 49.7879 12.3915 49.7209 12.5772 49.5824L17.5342 45.9068C18.4352 46.3561 19.3659 46.7383 20.3216 47.0554L21.2181 53.1111V53.1186L21.2256 53.1638C21.2427 53.2906 21.2848 53.4127 21.3495 53.5231C21.4143 53.6334 21.5004 53.7298 21.6027 53.8065C21.7051 53.8833 21.8217 53.9389 21.9458 53.9702C22.0699 54.0014 22.199 54.0077 22.3255 53.9885H31.6745C31.8077 54.0092 31.9437 54.0018 32.0738 53.9668C32.2039 53.9317 32.3252 53.8698 32.4299 53.785C32.5345 53.7002 32.6203 53.5944 32.6816 53.4744C32.7429 53.3545 32.7784 53.223 32.7857 53.0885L33.6822 47.0479C34.6347 46.7301 35.5603 46.3484 36.4583 45.8993L41.4229 49.5824C41.6089 49.7204 41.8384 49.7868 42.0694 49.7695C42.3004 49.7522 42.5175 49.6524 42.6809 49.4882L49.5025 42.6681C49.6657 42.5049 49.765 42.2887 49.7822 42.0586C49.7995 41.8284 49.7337 41.5998 49.5967 41.4141L45.9166 36.4505C46.3654 35.5507 46.7487 34.6255 47.0654 33.6713L53.1751 32.7637C53.4034 32.7303 53.6122 32.6162 53.7635 32.4421C53.9149 32.268 53.9988 32.0454 54 31.8147V22.1739C54.0007 21.9424 53.9182 21.7185 53.7674 21.5428C53.6167 21.3672 53.4078 21.2517 53.1788 21.2173L47.0579 20.3097C46.7406 19.3593 46.3573 18.434 45.909 17.538L49.5967 12.5707C49.7337 12.385 49.7995 12.1563 49.7822 11.9262C49.765 11.6961 49.6657 11.4798 49.5025 11.3167L42.6809 4.49653C42.518 4.33182 42.3012 4.23127 42.0701 4.21329C41.8391 4.19531 41.6093 4.2611 41.4229 4.39862L36.4658 8.07418C35.5648 7.62492 34.6341 7.24275 33.6784 6.92557L32.7744 0.817209C32.7393 0.589675 32.6239 0.382208 32.4492 0.232323C32.2744 0.0824387 32.0517 3.02311e-05 31.8214 0H22.1786ZM23.011 1.92816H30.989L31.8516 7.74654C31.8783 7.92808 31.9563 8.09821 32.0764 8.23697C32.1965 8.37572 32.3537 8.47733 32.5296 8.52986C33.785 8.90411 34.9994 9.40465 36.1532 10.0249C36.3146 10.1117 36.4974 10.1507 36.6802 10.1374C36.863 10.1241 37.0382 10.0589 37.1853 9.94962L41.905 6.44729L47.5513 12.0887L44.037 16.8225C43.9282 16.9699 43.8637 17.1452 43.8511 17.328C43.8384 17.5107 43.8781 17.6933 43.9654 17.8543C44.5849 19.0035 45.0856 20.2119 45.4608 21.4621C45.5131 21.6374 45.6141 21.7942 45.7522 21.9142C45.8902 22.0343 46.0596 22.1126 46.2405 22.14L52.0714 23.0024V30.9824L46.2518 31.841C46.0702 31.8678 45.9001 31.9458 45.7613 32.0658C45.6225 32.1859 45.5209 32.3431 45.4683 32.5189C45.094 33.7741 44.5933 34.9883 43.9729 36.1417C43.8856 36.3028 43.8459 36.4853 43.8586 36.6681C43.8713 36.8508 43.9358 37.0262 44.0445 37.1736L47.5513 41.8961L41.905 47.5375L37.174 44.0276C37.0269 43.9183 36.8517 43.8532 36.6689 43.8398C36.4861 43.8265 36.3033 43.8655 36.1419 43.9523C35.0723 44.5287 33.9446 44.9916 32.7857 45.357V36.9966C36.2385 34.9922 38.5714 31.2644 38.5714 26.9943C38.5664 22.6534 36.1258 18.6788 32.2584 16.7057C32.1117 16.6312 31.9484 16.5955 31.784 16.6018C31.6196 16.6082 31.4596 16.6566 31.3192 16.7423C31.1787 16.8279 31.0626 16.9481 30.9817 17.0913C30.9008 17.2346 30.8579 17.3961 30.8571 17.5606V26.4482L27 28.7605L23.1429 26.4482V17.5493C23.1429 17.4201 23.117 17.2922 23.0667 17.1733C23.0163 17.0543 22.9426 16.9467 22.8498 16.8567C22.7571 16.7668 22.6472 16.6964 22.5267 16.6498C22.4062 16.6031 22.2776 16.5812 22.1484 16.5852C22.0067 16.59 21.8678 16.626 21.7416 16.6907C17.8703 18.6659 15.429 22.6488 15.4286 26.9943C15.4286 31.2644 17.7615 34.9922 21.2143 36.9966V45.3645C20.0511 44.9999 18.9208 44.5372 17.8468 43.9598C17.6854 43.873 17.5026 43.834 17.3198 43.8474C17.137 43.8607 16.9618 43.9258 16.8147 44.0352L12.095 47.5375L6.44866 41.8961L9.96303 37.1623C10.0718 37.0149 10.1363 36.8395 10.1489 36.6568C10.1616 36.474 10.1219 36.2915 10.0346 36.1304C9.41508 34.9813 8.9144 33.7729 8.5392 32.5227C8.48694 32.3474 8.38588 32.1906 8.24781 32.0705C8.10975 31.9505 7.94038 31.8722 7.75949 31.8448L1.92857 30.9824V23.0061L7.74819 22.1437C7.92976 22.117 8.09994 22.039 8.23872 21.9189C8.3775 21.7989 8.47913 21.6417 8.53167 21.4659C8.90597 20.2106 9.40666 18.9965 10.0271 17.843C10.1144 17.682 10.1541 17.4994 10.1414 17.3167C10.1287 17.1339 10.0642 16.9586 9.9555 16.8112L6.44866 12.0887L12.095 6.44729L16.826 9.95715C16.9731 10.0665 17.1483 10.1316 17.3311 10.1449C17.5139 10.1583 17.6967 10.1193 17.8581 10.0325C19.0073 9.41314 20.2199 8.90884 21.4704 8.53362C21.6451 8.48077 21.8011 8.37946 21.9205 8.24147C22.0398 8.10348 22.1176 7.93447 22.1447 7.75407L23.011 1.92816ZM21.2143 19.7034V26.9943C21.2145 27.1603 21.2576 27.3235 21.3395 27.468C21.4213 27.6125 21.5391 27.7334 21.6814 27.819L26.5028 30.7113C26.6529 30.8016 26.8248 30.8493 27 30.8493C27.1752 30.8493 27.3471 30.8016 27.4972 30.7113L32.3186 27.819C32.4609 27.7334 32.5787 27.6125 32.6605 27.468C32.7424 27.3235 32.7855 27.1603 32.7857 26.9943V19.7147C35.0431 21.5197 36.6394 24.0342 36.6429 26.9943C36.6429 32.3301 32.337 36.6351 27 36.6351C21.663 36.6351 17.3571 32.3301 17.3571 26.9943C17.3575 24.0309 18.9546 21.5107 21.2143 19.7034ZM23.1429 37.8854C24.352 38.3151 25.6455 38.5632 27 38.5632C28.3545 38.5632 29.648 38.3151 30.8571 37.8854V52.0604H23.1429V37.8854Z"/>
</mask>
<path d="M22.1786 0C21.9477 0.000167512 21.7246 0.0831068 21.5498 0.233752C21.3749 0.384397 21.2599 0.592754 21.2256 0.820975L20.3178 6.93686C19.3653 7.25463 18.4397 7.63641 17.5417 8.08548L12.5772 4.40239C12.3911 4.26439 12.1616 4.19796 11.9306 4.21525C11.6996 4.23253 11.4825 4.33238 11.3191 4.49653L4.49749 11.3167C4.33429 11.4798 4.23504 11.6961 4.21776 11.9262C4.20048 12.1563 4.26632 12.385 4.40332 12.5707L8.08343 17.5305C7.63463 18.4303 7.25132 19.3592 6.93457 20.3135L0.824919 21.2173C0.595321 21.2509 0.385518 21.3661 0.233998 21.5418C0.082478 21.7174 -0.000600162 21.9419 3.26418e-06 22.1739V31.8147C0.000170812 32.0455 0.0831277 32.2685 0.233805 32.4434C0.384482 32.6182 0.592883 32.7332 0.821153 32.7675L6.94211 33.675C7.25935 34.6254 7.64269 35.5508 8.09096 36.4468L4.40332 41.4141C4.2653 41.6001 4.19885 41.8295 4.21614 42.0605C4.23344 42.2915 4.33331 42.5085 4.49749 42.6719L11.3191 49.492C11.483 49.6556 11.7003 49.7547 11.9313 49.7713C12.1623 49.7879 12.3915 49.7209 12.5772 49.5824L17.5342 45.9068C18.4352 46.3561 19.3659 46.7383 20.3216 47.0554L21.2181 53.1111V53.1186L21.2256 53.1638C21.2427 53.2906 21.2848 53.4127 21.3495 53.5231C21.4143 53.6334 21.5004 53.7298 21.6027 53.8065C21.7051 53.8833 21.8217 53.9389 21.9458 53.9702C22.0699 54.0014 22.199 54.0077 22.3255 53.9885H31.6745C31.8077 54.0092 31.9437 54.0018 32.0738 53.9668C32.2039 53.9317 32.3252 53.8698 32.4299 53.785C32.5345 53.7002 32.6203 53.5944 32.6816 53.4744C32.7429 53.3545 32.7784 53.223 32.7857 53.0885L33.6822 47.0479C34.6347 46.7301 35.5603 46.3484 36.4583 45.8993L41.4229 49.5824C41.6089 49.7204 41.8384 49.7868 42.0694 49.7695C42.3004 49.7522 42.5175 49.6524 42.6809 49.4882L49.5025 42.6681C49.6657 42.5049 49.765 42.2887 49.7822 42.0586C49.7995 41.8284 49.7337 41.5998 49.5967 41.4141L45.9166 36.4505C46.3654 35.5507 46.7487 34.6255 47.0654 33.6713L53.1751 32.7637C53.4034 32.7303 53.6122 32.6162 53.7635 32.4421C53.9149 32.268 53.9988 32.0454 54 31.8147V22.1739C54.0007 21.9424 53.9182 21.7185 53.7674 21.5428C53.6167 21.3672 53.4078 21.2517 53.1788 21.2173L47.0579 20.3097C46.7406 19.3593 46.3573 18.434 45.909 17.538L49.5967 12.5707C49.7337 12.385 49.7995 12.1563 49.7822 11.9262C49.765 11.6961 49.6657 11.4798 49.5025 11.3167L42.6809 4.49653C42.518 4.33182 42.3012 4.23127 42.0701 4.21329C41.8391 4.19531 41.6093 4.2611 41.4229 4.39862L36.4658 8.07418C35.5648 7.62492 34.6341 7.24275 33.6784 6.92557L32.7744 0.817209C32.7393 0.589675 32.6239 0.382208 32.4492 0.232323C32.2744 0.0824387 32.0517 3.02311e-05 31.8214 0H22.1786ZM23.011 1.92816H30.989L31.8516 7.74654C31.8783 7.92808 31.9563 8.09821 32.0764 8.23697C32.1965 8.37572 32.3537 8.47733 32.5296 8.52986C33.785 8.90411 34.9994 9.40465 36.1532 10.0249C36.3146 10.1117 36.4974 10.1507 36.6802 10.1374C36.863 10.1241 37.0382 10.0589 37.1853 9.94962L41.905 6.44729L47.5513 12.0887L44.037 16.8225C43.9282 16.9699 43.8637 17.1452 43.8511 17.328C43.8384 17.5107 43.8781 17.6933 43.9654 17.8543C44.5849 19.0035 45.0856 20.2119 45.4608 21.4621C45.5131 21.6374 45.6141 21.7942 45.7522 21.9142C45.8902 22.0343 46.0596 22.1126 46.2405 22.14L52.0714 23.0024V30.9824L46.2518 31.841C46.0702 31.8678 45.9001 31.9458 45.7613 32.0658C45.6225 32.1859 45.5209 32.3431 45.4683 32.5189C45.094 33.7741 44.5933 34.9883 43.9729 36.1417C43.8856 36.3028 43.8459 36.4853 43.8586 36.6681C43.8713 36.8508 43.9358 37.0262 44.0445 37.1736L47.5513 41.8961L41.905 47.5375L37.174 44.0276C37.0269 43.9183 36.8517 43.8532 36.6689 43.8398C36.4861 43.8265 36.3033 43.8655 36.1419 43.9523C35.0723 44.5287 33.9446 44.9916 32.7857 45.357V36.9966C36.2385 34.9922 38.5714 31.2644 38.5714 26.9943C38.5664 22.6534 36.1258 18.6788 32.2584 16.7057C32.1117 16.6312 31.9484 16.5955 31.784 16.6018C31.6196 16.6082 31.4596 16.6566 31.3192 16.7423C31.1787 16.8279 31.0626 16.9481 30.9817 17.0913C30.9008 17.2346 30.8579 17.3961 30.8571 17.5606V26.4482L27 28.7605L23.1429 26.4482V17.5493C23.1429 17.4201 23.117 17.2922 23.0667 17.1733C23.0163 17.0543 22.9426 16.9467 22.8498 16.8567C22.7571 16.7668 22.6472 16.6964 22.5267 16.6498C22.4062 16.6031 22.2776 16.5812 22.1484 16.5852C22.0067 16.59 21.8678 16.626 21.7416 16.6907C17.8703 18.6659 15.429 22.6488 15.4286 26.9943C15.4286 31.2644 17.7615 34.9922 21.2143 36.9966V45.3645C20.0511 44.9999 18.9208 44.5372 17.8468 43.9598C17.6854 43.873 17.5026 43.834 17.3198 43.8474C17.137 43.8607 16.9618 43.9258 16.8147 44.0352L12.095 47.5375L6.44866 41.8961L9.96303 37.1623C10.0718 37.0149 10.1363 36.8395 10.1489 36.6568C10.1616 36.474 10.1219 36.2915 10.0346 36.1304C9.41508 34.9813 8.9144 33.7729 8.5392 32.5227C8.48694 32.3474 8.38588 32.1906 8.24781 32.0705C8.10975 31.9505 7.94038 31.8722 7.75949 31.8448L1.92857 30.9824V23.0061L7.74819 22.1437C7.92976 22.117 8.09994 22.039 8.23872 21.9189C8.3775 21.7989 8.47913 21.6417 8.53167 21.4659C8.90597 20.2106 9.40666 18.9965 10.0271 17.843C10.1144 17.682 10.1541 17.4994 10.1414 17.3167C10.1287 17.1339 10.0642 16.9586 9.9555 16.8112L6.44866 12.0887L12.095 6.44729L16.826 9.95715C16.9731 10.0665 17.1483 10.1316 17.3311 10.1449C17.5139 10.1583 17.6967 10.1193 17.8581 10.0325C19.0073 9.41314 20.2199 8.90884 21.4704 8.53362C21.6451 8.48077 21.8011 8.37946 21.9205 8.24147C22.0398 8.10348 22.1176 7.93447 22.1447 7.75407L23.011 1.92816ZM21.2143 19.7034V26.9943C21.2145 27.1603 21.2576 27.3235 21.3395 27.468C21.4213 27.6125 21.5391 27.7334 21.6814 27.819L26.5028 30.7113C26.6529 30.8016 26.8248 30.8493 27 30.8493C27.1752 30.8493 27.3471 30.8016 27.4972 30.7113L32.3186 27.819C32.4609 27.7334 32.5787 27.6125 32.6605 27.468C32.7424 27.3235 32.7855 27.1603 32.7857 26.9943V19.7147C35.0431 21.5197 36.6394 24.0342 36.6429 26.9943C36.6429 32.3301 32.337 36.6351 27 36.6351C21.663 36.6351 17.3571 32.3301 17.3571 26.9943C17.3575 24.0309 18.9546 21.5107 21.2143 19.7034ZM23.1429 37.8854C24.352 38.3151 25.6455 38.5632 27 38.5632C28.3545 38.5632 29.648 38.3151 30.8571 37.8854V52.0604H23.1429V37.8854Z" fill="black" stroke="black" stroke-width="8" mask="url(#path-1-inside-1_760_98)"/>
<ellipse cx="27" cy="21.5" rx="4" ry="4.5" fill="#EB0A1E"/>
</svg>
