<svg width="36" height="36" viewBox="0 0 36 36" fill="none" xmlns="http://www.w3.org/2000/svg">
<g clip-path="url(#clip0)">
<path d="M18.082 0C18.0723 0.00964547 18.053 0.00964547 18.0241 0.00964547C8.26287 0.00964547 0.324646 7.94787 0.324646 17.7091C0.324646 21.6927 1.68466 25.5605 4.17319 28.676L1.59785 34.6562C1.38565 35.1481 1.61714 35.7172 2.09941 35.9197C2.27303 35.9969 2.46594 36.0162 2.64921 35.9873L12.0921 34.3282C13.9826 35.0131 15.9696 35.3603 17.9759 35.3507C27.7371 35.3507 35.6753 27.4124 35.6753 17.6512C35.6946 7.91893 27.8142 0.00964547 18.082 0ZM17.9855 33.4312C16.1239 33.4312 14.2816 33.0936 12.5358 32.4377C12.3718 32.3702 12.1982 32.3606 12.0246 32.3895L4.07674 33.7784L6.17945 28.8882C6.32413 28.5506 6.26626 28.1551 6.02512 27.8754C4.88696 26.554 3.98028 25.0493 3.34368 23.4192C2.62991 21.5962 2.26339 19.6575 2.26339 17.6994C2.26339 8.99923 9.34317 1.92909 18.0337 1.92909C26.705 1.9098 33.7462 8.92206 33.7559 17.5933C33.7559 17.6126 33.7559 17.6319 33.7559 17.6512C33.7559 26.3611 26.6761 33.4312 17.9855 33.4312Z" fill="white"/>
<path d="M17.2332 14.1499H12.0246C11.4941 14.1499 11.0601 14.5839 11.0601 15.1144C11.0601 15.645 11.4941 16.079 12.0246 16.079H17.2332C17.7637 16.079 18.1977 15.645 18.1977 15.1144C18.1977 14.5839 17.7637 14.1499 17.2332 14.1499Z" fill="white"/>
<path d="M23.985 18.9727H12.0246C11.4941 18.9727 11.0601 19.4067 11.0601 19.9372C11.0601 20.4677 11.4941 20.9018 12.0246 20.9018H23.985C24.5155 20.9018 24.9496 20.4677 24.9496 19.9372C24.9496 19.4067 24.5155 18.9727 23.985 18.9727Z" fill="white"/>
</g>
<defs>
<clipPath id="clip0">
<rect width="36" height="36" fill="white"/>
</clipPath>
</defs>
</svg>
