<svg width="36" height="36" viewBox="0 0 36 36" fill="none" xmlns="http://www.w3.org/2000/svg">
<path fill-rule="evenodd" clip-rule="evenodd" d="M18 1.50599C8.89059 1.50599 1.50599 8.89059 1.50599 18C1.50599 27.1094 8.89059 34.494 18 34.494C27.1094 34.494 34.494 27.1094 34.494 18C34.494 8.89059 27.1094 1.50599 18 1.50599ZM0.421875 18C0.421875 8.29188 8.29188 0.421875 18 0.421875C27.7081 0.421875 35.5781 8.29188 35.5781 18C35.5781 27.7081 27.7081 35.5781 18 35.5781C8.29188 35.5781 0.421875 27.7081 0.421875 18ZM26.1269 12.9705C26.3386 13.1822 26.3386 13.5254 26.1269 13.7371L24.0132 15.8508C22.8742 16.9899 21.8691 18.2553 21.0175 19.6226L18.6782 23.3782L11.5336 19.2435L12.0766 18.3052L18.3129 21.9142L20.0973 19.0495C20.9926 17.6121 22.0492 16.2817 23.2466 15.0843L25.3604 12.9705C25.5721 12.7588 25.9153 12.7588 26.1269 12.9705Z" fill="white"/>
</svg>
