<svg width="75" height="90" viewBox="0 0 75 90" fill="none" xmlns="http://www.w3.org/2000/svg">
<g clip-path="url(#clip0_757_54)">
<path d="M53.9062 36.5625H7.03125V70.3125H53.9062V36.5625Z" stroke="black" stroke-width="3" stroke-miterlimit="10"/>
<path d="M16.4062 36.5625V19.6875H67.9688V53.4375H53.9062" stroke="black" stroke-width="3" stroke-miterlimit="10"/>
<g filter="url(#filter0_d_757_54)">
<path fill-rule="evenodd" clip-rule="evenodd" d="M34.6386 56.7626C33.4548 58.6235 31.5387 59.7406 29.5877 59.7406C26.4207 59.7406 23.3456 56.7969 23.3456 52.5066C23.3456 48.2162 26.4207 45.2725 29.5877 45.2725C31.5709 45.2725 33.5181 46.4269 34.6967 48.3434L38.0223 48.3167C36.5766 44.7537 33.3438 42.2725 29.5877 42.2725C24.4834 42.2725 20.3456 46.8544 20.3456 52.5066C20.3456 58.1587 24.4834 62.7406 29.5877 62.7406C33.3301 62.7406 36.5529 60.2776 38.0063 56.7356L34.6386 56.7626Z" fill="#EB0A1E"/>
</g>
<rect x="18.421" y="53.2266" width="11.8158" height="1.32664" rx="0.663321" fill="black"/>
<rect x="18.421" y="51.0566" width="11.8158" height="1.32664" rx="0.663321" fill="black"/>
</g>
<defs>
<filter id="filter0_d_757_54" x="16.3456" y="42.2725" width="25.6766" height="28.4678" filterUnits="userSpaceOnUse" color-interpolation-filters="sRGB">
<feFlood flood-opacity="0" result="BackgroundImageFix"/>
<feColorMatrix in="SourceAlpha" type="matrix" values="0 0 0 0 0 0 0 0 0 0 0 0 0 0 0 0 0 0 127 0" result="hardAlpha"/>
<feOffset dy="4"/>
<feGaussianBlur stdDeviation="2"/>
<feComposite in2="hardAlpha" operator="out"/>
<feColorMatrix type="matrix" values="0 0 0 0 0 0 0 0 0 0 0 0 0 0 0 0 0 0 0.25 0"/>
<feBlend mode="normal" in2="BackgroundImageFix" result="effect1_dropShadow_757_54"/>
<feBlend mode="normal" in="SourceGraphic" in2="effect1_dropShadow_757_54" result="shape"/>
</filter>
<clipPath id="clip0_757_54">
<rect width="75" height="90" fill="white"/>
</clipPath>
</defs>
</svg>
