<svg width="36" height="36" viewBox="0 0 36 36" fill="none" xmlns="http://www.w3.org/2000/svg">
<g clip-path="url(#clip0)">
<path d="M15.8536 0C7.11218 0 0 7.11218 0 15.8536C0 24.5956 7.11218 31.7073 15.8536 31.7073C24.5956 31.7073 31.7073 24.5956 31.7073 15.8536C31.7073 7.11218 24.5956 0 15.8536 0ZM15.8536 28.7805C8.72585 28.7805 2.92683 22.9815 2.92683 15.8537C2.92683 8.72592 8.72585 2.92683 15.8536 2.92683C22.9814 2.92683 28.7805 8.72585 28.7805 15.8536C28.7805 22.9814 22.9814 28.7805 15.8536 28.7805Z" fill="white"/>
<path d="M35.5712 33.5021L27.181 25.1119C26.6093 24.5402 25.6834 24.5402 25.1117 25.1119C24.54 25.6831 24.54 26.61 25.1117 27.1812L33.5019 35.5714C33.7877 35.8573 34.1619 36.0002 34.5366 36.0002C34.9107 36.0002 35.2853 35.8573 35.5712 35.5714C36.1429 35.0002 36.1429 34.0734 35.5712 33.5021Z" fill="white"/>
</g>
<defs>
<clipPath id="clip0">
<rect width="36" height="36" fill="white"/>
</clipPath>
</defs>
</svg>
