<svg width="52" height="19" viewBox="0 0 52 19" fill="none" xmlns="http://www.w3.org/2000/svg">
<path fill-rule="evenodd" clip-rule="evenodd" d="M13.0451 17.7781C14.9203 17.7781 16.4405 16.219 16.4405 14.2958C16.4405 12.3726 14.9203 10.8135 13.0451 10.8135C11.17 10.8135 9.64984 12.3726 9.64984 14.2958C9.64984 16.219 11.17 17.7781 13.0451 17.7781ZM13.0451 19C15.5783 19 17.6318 16.8939 17.6318 14.2958C17.6318 11.6978 15.5783 9.59164 13.0451 9.59164C10.512 9.59164 8.4585 11.6978 8.4585 14.2958C8.4585 16.8939 10.512 19 13.0451 19Z" fill="white"/>
<path fill-rule="evenodd" clip-rule="evenodd" d="M18.4062 15.0289C18.4062 14.6916 18.6729 14.418 19.0018 14.418H37.4676C37.7965 14.418 38.0632 14.6916 38.0632 15.0289C38.0632 15.3663 37.7965 15.6399 37.4676 15.6399H19.0018C18.6729 15.6399 18.4062 15.3663 18.4062 15.0289Z" fill="white"/>
<path fill-rule="evenodd" clip-rule="evenodd" d="M43.5434 17.7781C45.4185 17.7781 46.9387 16.219 46.9387 14.2958C46.9387 12.3726 45.4185 10.8135 43.5434 10.8135C41.6682 10.8135 40.1481 12.3726 40.1481 14.2958C40.1481 16.219 41.6682 17.7781 43.5434 17.7781ZM43.5434 19C46.0765 19 48.13 16.8939 48.13 14.2958C48.13 11.6978 46.0765 9.59164 43.5434 9.59164C41.0102 9.59164 38.9567 11.6978 38.9567 14.2958C38.9567 16.8939 41.0102 19 43.5434 19Z" fill="white"/>
<path fill-rule="evenodd" clip-rule="evenodd" d="M17.0957 0.610933C17.0957 0.273576 17.3624 0 17.6914 0H32.6179C32.8959 0 33.171 0.0758772 33.4138 0.2269C34.9573 1.1868 37.9938 3.20703 39.6194 4.77199C39.6848 4.83492 39.7604 4.87219 39.8345 4.88441C44.5294 5.65809 47.6951 6.3796 48.8865 6.6946C49.0701 6.74323 49.2485 6.8279 49.4082 6.95473C50.2224 7.60086 51.2226 8.74574 51.7087 10.2291C52.205 11.7438 52.1503 13.5758 50.8871 15.4931C50.703 15.7727 50.3327 15.8462 50.0601 15.6573C49.7875 15.4684 49.7158 15.0887 49.9 14.8091C50.9465 13.2206 50.9626 11.7877 50.5794 10.6183C50.1859 9.4174 49.3564 8.4586 48.6791 7.92111C48.657 7.90351 48.6283 7.88812 48.5891 7.87785C47.4427 7.57471 44.3148 6.86028 39.6454 6.09075C39.3224 6.03748 39.032 5.8823 38.804 5.66286C37.2792 4.19491 34.3408 2.23235 32.7961 1.27159C32.7445 1.23958 32.6841 1.22187 32.6179 1.22187H17.6914C17.3624 1.22187 17.0957 0.948289 17.0957 0.610933Z" fill="white"/>
<path fill-rule="evenodd" clip-rule="evenodd" d="M17.4855 0H19.1805C19.5095 0 19.7762 0.273576 19.7762 0.610932C19.7762 0.948289 19.5095 1.22186 19.1805 1.22186H17.6596C14.1095 2.32228 11.9692 4.13809 11.3493 4.82857L11.2012 4.9934L10.9844 5.02101C9.63375 5.19268 7.52389 5.54458 5.59516 6.03968C4.63014 6.28735 3.72456 6.5674 2.98734 6.87299C2.22804 7.18774 1.72859 7.49748 1.49511 7.76617C1.29395 7.99772 1.18586 8.33141 1.19154 8.79449C1.19727 9.26161 1.3197 9.81145 1.52763 10.3983C1.91377 11.4883 2.5548 12.5962 3.0677 13.338L6.45526 14.3828C6.77031 14.48 6.9489 14.8206 6.85416 15.1438C6.75941 15.4669 6.42722 15.65 6.11218 15.5529L2.34126 14.3898L2.22344 14.2258C1.65026 13.4278 0.873719 12.1306 0.407906 10.8156C0.175142 10.1586 0.00834287 9.46518 0.00030134 8.80989C-0.00778784 8.15057 0.145788 7.48258 0.605691 6.95327C1.03326 6.46122 1.75491 6.06595 2.54095 5.7402C3.34904 5.40516 4.31301 5.10923 5.3059 4.85435C7.19528 4.36939 9.24037 4.02018 10.6279 3.83568C11.5301 2.91146 13.8252 1.1163 17.4025 0.0252927L17.4855 0Z" fill="white"/>
</svg>
