<svg width="54" height="54" viewBox="0 0 54 54" fill="none" xmlns="http://www.w3.org/2000/svg">
<path d="M47.9443 19.7543L47.6027 18.4869C47.487 18.0626 47.0462 17.7155 46.6219 17.7155H42.886L39.6625 13.7537C39.4917 13.5443 39.117 13.142 38.4172 13.0539C31.3696 12.6075 27.4188 12.591 20.3713 13.0539C19.666 13.142 19.2913 13.5443 19.126 13.7537L17.0211 16.3379C17.6823 16.4206 18.338 16.5639 18.9827 16.7567L20.2941 15.1257C20.4649 14.9108 20.6578 14.7951 20.9333 14.762C27.9202 14.2881 30.9068 14.3433 37.8606 14.762C38.1362 14.7951 38.329 14.9108 38.4998 15.1257L42.4341 20.0243C42.5609 20.2006 42.5168 20.4265 42.1862 20.3824C35.1055 20.0188 30.0802 19.892 24.1623 20.0518C27.0772 23.2863 27.9368 27.9369 26.3774 31.9869L28.1076 33.8604H39.8498V35.4198C39.8498 35.8551 40.208 36.2132 40.6433 36.2132H46.4345C46.8698 36.2132 47.228 35.8551 47.228 35.4198V24.7741C47.25 23.65 46.9855 22.7628 46.4621 22.0961L45.597 21.0326L47.7239 20.0628C47.8782 19.9912 47.9939 19.9251 47.9443 19.7543ZM45.1617 24.7135C45.1617 25.4684 44.5445 26.113 43.7896 26.1406L38.6266 26.3335C38.4392 26.339 38.2849 26.1902 38.2849 26.0028V24.8843C38.2849 24.223 38.8304 23.7161 39.4862 23.639L44.6492 22.9998C44.9302 22.9667 45.1617 23.2147 45.1617 23.4957V24.7135Z" fill="black"/>
<path d="M27.7053 36.4946L23.8977 32.3785C25.8428 28.8244 25.3194 24.3722 22.5367 21.3636C18.9771 17.512 12.949 17.275 9.09732 20.8346C5.24569 24.3942 5.00875 30.4224 8.56834 34.274C11.351 37.2881 15.7481 38.1587 19.4455 36.5001L23.253 40.6163C24.041 41.4703 25.38 41.5199 26.2285 40.732L27.5896 39.4701C28.4381 38.6877 28.4877 37.3487 27.7053 36.4946ZM20.002 32.643C17.3461 35.1006 13.1859 34.9352 10.7283 32.2793C8.27079 29.6234 8.4361 25.4632 11.092 23.0112C13.7479 20.5536 17.9081 20.7189 20.3602 23.3748C22.8232 26.0252 22.6579 30.1855 20.002 32.643Z" fill="black"/>
<path d="M19.0625 24.1562H11.9375V31.0312H19.0625V24.1562Z" fill="#EB0A1E"/>
</svg>
