<svg width="36" height="36" viewBox="0 0 36 36" fill="none" xmlns="http://www.w3.org/2000/svg">
<g clip-path="url(#clip0)">
<path d="M23.5515 9.68896H6.3116C6.0191 9.68896 5.78201 9.92606 5.78201 10.2186C5.78201 10.5111 6.0191 10.7482 6.3116 10.7482H23.5515C23.844 10.7482 24.0811 10.5111 24.0811 10.2186C24.0811 9.92606 23.844 9.68896 23.5515 9.68896Z" fill="white"/>
<path d="M6.3116 7.07481H14.9315C15.224 7.07481 15.4611 6.83772 15.4611 6.54522C15.4611 6.25272 15.224 6.01562 14.9315 6.01562H6.3116C6.0191 6.01562 5.78201 6.25272 5.78201 6.54522C5.78201 6.83779 6.0191 7.07481 6.3116 7.07481Z" fill="white"/>
<path d="M23.5515 12.9438H6.3116C6.0191 12.9438 5.78201 13.1809 5.78201 13.4734C5.78201 13.7659 6.0191 14.003 6.3116 14.003H23.5515C23.844 14.003 24.0811 13.7659 24.0811 13.4734C24.081 13.1809 23.844 12.9438 23.5515 12.9438Z" fill="white"/>
<path d="M10.2388 32.3204H4.72154C3.81599 32.3204 3.07918 31.5837 3.07918 30.6781V2.70148C3.07918 1.79592 3.81599 1.05912 4.72154 1.05912H20.6161C20.6674 1.05912 20.718 1.06383 20.768 1.07058V4.37344C20.768 5.86308 21.9799 7.07491 23.4695 7.07491H26.7722C26.7791 7.12498 26.7837 7.17553 26.7837 7.22686V16.2452C26.7837 16.5377 27.0208 16.7748 27.3133 16.7748C27.6058 16.7748 27.8429 16.5377 27.8429 16.2452V7.22693C27.8429 6.64601 27.6166 6.09982 27.2059 5.68898L22.1539 0.637031C21.7431 0.226266 21.197 0 20.6161 0H4.72154C3.2319 0 2.02007 1.21191 2.02007 2.70148V30.6781C2.02007 32.1677 3.23197 33.3795 4.72154 33.3795H10.2388C10.5313 33.3795 10.7683 33.1424 10.7683 32.8499C10.7683 32.5574 10.5313 32.3204 10.2388 32.3204ZM26.0348 6.0158H23.4695C22.564 6.0158 21.8272 5.27899 21.8272 4.37344V1.80816L26.0348 6.0158Z" fill="white"/>
<path d="M33.8173 25.9263L29.3301 18.3523C29.0031 17.8 28.2914 17.6175 27.7389 17.9448L26.6474 18.5915C25.8002 19.0933 25.4421 20.109 25.733 21.0091C25.3653 21.1423 24.9621 21.1402 24.5909 20.9967C23.7291 20.7256 23.0739 20.1802 21.9919 20.4538C20.1546 20.9216 20.2105 20.8982 20.0442 20.9552C18.9685 20.3427 18.3218 20.1604 17.1798 20.6022L16.1618 20.9957C15.6905 21.1778 15.1712 21.1347 14.7357 20.8766L14.4578 20.7129C14.5934 19.9006 14.2332 19.0434 13.4704 18.5916C13.4704 18.5916 13.4704 18.5916 13.4704 18.5915L12.379 17.9449C11.828 17.6186 11.1142 17.8013 10.7878 18.3523L6.30047 25.9264C5.97345 26.4785 6.15542 27.1904 6.70779 27.5176L7.79918 28.1642C8.12944 28.3598 8.49239 28.4529 8.85099 28.4529C9.25085 28.4529 9.64509 28.337 9.98217 28.1187L10.2096 28.253L9.7294 28.9218C9.15713 29.719 9.33895 30.8276 10.1363 31.3999C10.505 31.6646 10.9682 31.7855 11.4473 31.7102C11.5233 32.1545 11.7667 32.5704 12.1609 32.8534C12.5311 33.1192 12.9922 33.2402 13.4721 33.1646C13.5483 33.6086 13.7916 34.0241 14.1855 34.3069C14.715 34.687 15.3732 34.7309 15.9218 34.4966C16.0418 34.8084 16.2504 35.0899 16.5414 35.2989C17.3014 35.8443 18.3482 35.7021 18.9387 34.9954L20.2148 35.7514C21.0588 36.2516 22.1477 35.9736 22.6481 35.1287C22.7761 34.9127 22.8555 34.6773 22.8845 34.4353L22.8874 34.4371C23.7301 34.9362 24.8215 34.6567 25.3207 33.8143C25.4653 33.5702 25.5445 33.3055 25.5638 33.0402C26.3066 33.2269 27.1161 32.915 27.526 32.2231C27.6605 31.9961 27.7385 31.7509 27.7641 31.5042C28.5602 31.8166 29.4907 31.5147 29.9402 30.7559C30.182 30.3477 30.2505 29.8699 30.1328 29.4102C30.0655 29.1473 29.9418 28.9085 29.7719 28.707L30.4753 28.296C31.0704 28.5403 31.7494 28.5012 32.3186 28.1641L33.4098 27.5175C33.9622 27.1905 34.1446 26.4788 33.8173 25.9263ZM8.33904 27.253L7.24765 26.6063C7.19913 26.5775 7.18303 26.5147 7.21172 26.4662L11.6991 18.8919C11.728 18.8432 11.791 18.8274 11.8393 18.856L12.9306 19.5026C13.4155 19.7899 13.5673 20.4119 13.2852 20.888L9.72448 26.8983C9.44027 27.3781 8.81885 27.5371 8.33904 27.253ZM10.7539 30.5395C10.4323 30.3086 10.3588 29.8613 10.5898 29.5395L11.2957 28.5563C11.5205 28.243 11.9686 28.1573 12.2957 28.3921C12.6166 28.6225 12.6903 29.071 12.4599 29.392L11.754 30.3753C11.5236 30.6964 11.0748 30.7698 10.7539 30.5395ZM12.7786 31.9931C12.4576 31.7626 12.384 31.3139 12.6144 30.993L13.3203 30.0099C13.3203 30.0099 13.3203 30.0099 13.3203 30.0098C13.3203 30.0098 13.3203 30.0097 13.3203 30.0097L14.0993 28.9247C14.211 28.7692 14.3764 28.6664 14.5653 28.6355C14.6045 28.629 14.6438 28.6258 14.6828 28.6258C14.8315 28.6258 14.9761 28.6721 15.0993 28.7605C15.2547 28.8721 15.3575 29.0375 15.3884 29.2264C15.4194 29.4153 15.3751 29.6049 15.2634 29.7604L13.7785 31.8288C13.5477 32.1505 13.1003 32.2241 12.7786 31.9931ZM14.8032 33.4465C14.4824 33.2162 14.4087 32.7679 14.6387 32.447C14.6388 32.4468 14.6389 32.4467 14.639 32.4465L16.1239 30.3782C16.3542 30.0572 16.803 29.9836 17.1239 30.2139C17.4449 30.4443 17.5185 30.8929 17.2881 31.2139L16.6283 32.1329C16.6283 32.1329 16.6283 32.1329 16.6283 32.133L15.8031 33.2823C15.5727 33.6033 15.1243 33.6771 14.8032 33.4465ZM17.1591 34.4385C16.8383 34.2081 16.7646 33.76 16.9944 33.4391L17.4887 32.7507C17.719 32.4297 18.1678 32.3563 18.4887 32.5865C18.8096 32.8169 18.8832 33.2655 18.6528 33.5865L18.159 34.2742C17.9287 34.5953 17.4799 34.669 17.1591 34.4385ZM29.0292 30.2161C28.8277 30.5562 28.3872 30.669 28.0471 30.4675C27.4711 30.1263 23.7555 27.925 23.3593 27.6903C23.1076 27.5413 22.7828 27.6243 22.6338 27.8759C22.4847 28.1276 22.5678 28.4524 22.8194 28.6015L26.3634 30.7011L26.3634 30.7012C26.7037 30.9027 26.8172 31.3418 26.6149 31.6834C26.4133 32.0236 25.9726 32.1362 25.6326 31.9349C24.3218 31.1583 23.2575 30.5278 22.0868 29.8341C21.835 29.6851 21.5103 29.7681 21.3612 30.0198C21.2121 30.2714 21.2952 30.5963 21.5468 30.7453L24.1581 32.2923L24.1586 32.2927C24.4991 32.4948 24.6115 32.9337 24.4096 33.2746C24.208 33.6148 23.7675 33.7276 23.4273 33.526L22.0259 32.6959C22.0257 32.6958 22.0255 32.6957 22.0254 32.6956C22.0252 32.6955 22.0251 32.6954 22.0249 32.6954L21.0023 32.0894C20.7505 31.9403 20.4258 32.0233 20.2767 32.275C20.1276 32.5267 20.2107 32.8515 20.4623 33.0006L21.4852 33.6066C21.4854 33.6067 21.4855 33.6068 21.4857 33.6069C21.8259 33.8084 21.9394 34.2474 21.7371 34.589C21.5355 34.9293 21.095 35.042 20.7548 34.8405L19.5615 34.1336C20.073 33.3443 19.8784 32.2806 19.1063 31.7264C18.8796 31.5637 18.6271 31.4624 18.3688 31.4188C18.6428 30.6864 18.4066 29.8313 17.7415 29.3538C17.3478 29.071 16.8763 28.9734 16.4314 29.0431C16.3522 28.5801 16.099 28.1746 15.717 27.9004C14.9985 27.3848 14.0222 27.4839 13.4191 28.094C13.2966 27.8788 13.1274 27.6857 12.9134 27.532C12.3163 27.1036 11.5412 27.0995 10.9502 27.4605L10.7075 27.3172L14.0382 21.6951L14.1968 21.7886C14.8971 22.2035 15.7517 22.29 16.5437 21.9837L17.5617 21.5901C18.1442 21.365 18.4654 21.3503 19.0417 21.6222C18.6646 22.0458 18.4408 22.6019 18.4408 23.2012V25.5493C18.4408 26.173 18.9479 26.6807 19.571 26.6811H19.5726C20.1977 26.6811 20.7855 26.4378 21.2277 25.9959C21.4854 25.7382 21.6757 25.4311 21.7898 25.0959C22.4735 25.5008 28.1229 28.8462 28.7779 29.2342C28.9426 29.3318 29.0595 29.4877 29.107 29.6732C29.1544 29.8585 29.1268 30.0513 29.0292 30.2161ZM32.8702 26.6063L31.7788 27.253C31.299 27.537 30.6775 27.3779 30.3935 26.8984L28.7245 24.0813C28.5754 23.8297 28.2504 23.7466 27.999 23.8955C27.7473 24.0446 27.6642 24.3695 27.8132 24.6211L29.4822 27.4382C29.5136 27.4913 29.5477 27.5417 29.583 27.5908L29.119 27.8619C29.0252 27.9174 28.935 27.9786 28.8487 28.045L21.6541 23.7845C21.3016 23.5758 20.8547 23.8302 20.8547 24.2401C20.8492 24.2717 20.9094 24.8161 20.4789 25.2465C20.2368 25.4884 19.9149 25.6217 19.5725 25.6217C19.5722 25.6217 19.572 25.6217 19.5717 25.6217C19.5321 25.6217 19.4999 25.5891 19.4999 25.549V23.2009C19.4999 22.5875 19.9219 22.07 20.4926 21.9255L22.2516 21.4804C22.8898 21.3191 23.2506 21.6599 24.2062 21.9833C24.8696 22.24 25.5909 22.2242 26.2312 21.9507L26.5508 22.4903C26.7 22.7421 27.0248 22.825 27.2764 22.676C27.528 22.527 27.6111 22.2021 27.4621 21.9505L26.8326 20.8879C26.5477 20.4071 26.7064 19.7875 27.1871 19.5025L28.2785 18.856C28.3262 18.8276 28.3893 18.8421 28.4188 18.8919L32.906 26.466C32.935 26.5149 32.919 26.5774 32.8702 26.6063Z" fill="white"/>
</g>
<defs>
<clipPath id="clip0">
<rect width="36" height="36" fill="white"/>
</clipPath>
</defs>
</svg>
