<svg width="64" height="64" viewBox="0 0 64 64" fill="none" xmlns="http://www.w3.org/2000/svg">
<g filter="url(#filter0_d_757_65)">
<path d="M58.9112 25.787C57.7152 10.9149 44.6915 -0.106392 29.8072 1.08869C14.923 2.28377 3.8927 15.2968 5.08876 30.1689C6.28481 44.1115 17.9796 55 32.0664 55C32.7309 55 33.5283 55 34.1928 54.8672C49.077 53.6721 60.1073 40.6591 58.9112 25.787ZM50.9375 44.1115C42.0336 54.6016 26.352 55.7967 15.8533 46.9C5.35455 38.0033 4.15849 22.3345 13.0625 11.8444C17.3151 6.79851 23.4283 3.74442 30.073 3.21327C30.7375 3.21327 31.402 3.08048 32.0664 3.08048C45.8875 3.08048 56.9178 14.2345 56.9178 28.0443C56.9178 33.8869 54.7915 39.5968 50.9375 44.1115Z" fill="black" stroke="black" stroke-width="2"/>
<path d="M31.6678 23.2648C31.5349 23.2648 31.2691 23.2648 31.1362 23.3976L24.6243 9.32227L22.7638 10.2518L29.2757 24.3271C27.2822 25.9206 26.8835 28.8419 28.4783 30.8337C29.4085 32.0288 30.7375 32.6927 32.1993 32.6927H32.598C35.123 32.2943 36.8507 29.9042 36.5849 27.3812C35.9204 24.9911 33.927 23.2648 31.6678 23.2648ZM32.1993 30.5681C30.8704 30.8337 29.5414 29.7714 29.2757 28.4435C29.0099 27.1157 30.073 25.7878 31.402 25.5222C31.5349 25.5222 31.6678 25.5222 31.6678 25.5222H31.9336C32.598 25.5222 33.1296 25.7878 33.5283 26.1861C34.0599 26.5845 34.3257 27.2484 34.4586 27.9124C34.5915 29.2402 33.5283 30.4353 32.1993 30.5681Z" fill="black"/>
<path d="M30.3388 8.12633L30.6046 10.2509C40.4388 9.45419 48.9441 16.7574 49.7415 26.5836L51.8678 26.4509C50.9375 15.4296 41.3691 7.32961 30.3388 8.12633Z" fill="black"/>
</g>
<circle cx="32" cy="28" r="3" fill="#EB0A1E"/>
<defs>
<filter id="filter0_d_757_65" x="-6.10352e-05" y="0" width="64.0001" height="64" filterUnits="userSpaceOnUse" color-interpolation-filters="sRGB">
<feFlood flood-opacity="0" result="BackgroundImageFix"/>
<feColorMatrix in="SourceAlpha" type="matrix" values="0 0 0 0 0 0 0 0 0 0 0 0 0 0 0 0 0 0 127 0" result="hardAlpha"/>
<feOffset dy="4"/>
<feGaussianBlur stdDeviation="2"/>
<feComposite in2="hardAlpha" operator="out"/>
<feColorMatrix type="matrix" values="0 0 0 0 0 0 0 0 0 0 0 0 0 0 0 0 0 0 0.25 0"/>
<feBlend mode="normal" in2="BackgroundImageFix" result="effect1_dropShadow_757_65"/>
<feBlend mode="normal" in="SourceGraphic" in2="effect1_dropShadow_757_65" result="shape"/>
</filter>
</defs>
</svg>
